<svg xmlns="http://www.w3.org/2000/svg" xmlns:xlink="http://www.w3.org/1999/xlink" contentStyleType="text/css" data-diagram-type="SEQUENCE" height="779px" preserveAspectRatio="none" style="width:1086px;height:779px;background:#FFFFFF;" version="1.1" viewBox="0 0 1086 779" width="1086px" zoomAndPan="magnify"><defs/><g><rect fill="none" height="395.2031" style="stroke:#000000;stroke-width:1.5;" width="681.688" x="398.0527" y="256.9609"/><rect fill="none" height="148.4688" style="stroke:#000000;stroke-width:1.5;" width="661.688" x="408.0527" y="439.7578"/><g><title>User</title><rect fill="#000000" fill-opacity="0.00000" height="617" width="8" x="19.9551" y="81.2969"/><line style="stroke:#181818;stroke-width:0.5;stroke-dasharray:5.0,5.0;" x1="23" x2="23" y1="81.2969" y2="698.2969"/></g><g><title>Minishell .main loop.</title><rect fill="#000000" fill-opacity="0.00000" height="617" width="8" x="174.228" y="81.2969"/><line style="stroke:#181818;stroke-width:0.5;stroke-dasharray:5.0,5.0;" x1="178.2271" x2="178.2271" y1="81.2969" y2="698.2969"/></g><g><title>Parser</title><rect fill="#000000" fill-opacity="0.00000" height="617" width="8" x="374.8325" y="81.2969"/><line style="stroke:#181818;stroke-width:0.5;stroke-dasharray:5.0,5.0;" x1="378.6123" x2="378.6123" y1="81.2969" y2="698.2969"/></g><g><title>Execution Engine</title><rect fill="#000000" fill-opacity="0.00000" height="617" width="8" x="481.8345" y="81.2969"/><line style="stroke:#181818;stroke-width:0.5;stroke-dasharray:5.0,5.0;" x1="485.0527" x2="485.0527" y1="81.2969" y2="698.2969"/></g><g><title>Path Resolver</title><rect fill="#000000" fill-opacity="0.00000" height="617" width="8" x="715.4404" y="81.2969"/><line style="stroke:#181818;stroke-width:0.5;stroke-dasharray:5.0,5.0;" x1="719.1514" x2="719.1514" y1="81.2969" y2="698.2969"/></g><g><title>Child Process</title><rect fill="#000000" fill-opacity="0.00000" height="617" width="8" x="834.4429" y="81.2969"/><line style="stroke:#181818;stroke-width:0.5;stroke-dasharray:5.0,5.0;" x1="837.7295" x2="837.7295" y1="81.2969" y2="698.2969"/></g><g><title>System</title><rect fill="#000000" fill-opacity="0.00000" height="617" width="8" x="1022.6377" y="81.2969"/><line style="stroke:#181818;stroke-width:0.5;stroke-dasharray:5.0,5.0;" x1="1026.5347" x2="1026.5347" y1="81.2969" y2="698.2969"/></g><g class="participant participant-head" data-participant="User"><text fill="#000000" font-family="sans-serif" font-size="14" lengthAdjust="spacing" textLength="31.9102" x="5" y="77.9951">User</text><ellipse cx="23.9551" cy="13.5" fill="#E2E2F0" rx="8" ry="8" style="stroke:#181818;stroke-width:0.5;"/><path d="M23.9551,21.5 L23.9551,48.5 M10.9551,29.5 L36.9551,29.5 M23.9551,48.5 L10.9551,63.5 M23.9551,48.5 L36.9551,63.5" fill="none" style="stroke:#181818;stroke-width:0.5;"/></g><g class="participant participant-tail" data-participant="User"><text fill="#000000" font-family="sans-serif" font-size="14" lengthAdjust="spacing" textLength="31.9102" x="5" y="710.292">User</text><ellipse cx="23.9551" cy="722.0938" fill="#E2E2F0" rx="8" ry="8" style="stroke:#181818;stroke-width:0.5;"/><path d="M23.9551,730.0938 L23.9551,757.0938 M10.9551,738.0938 L36.9551,738.0938 M23.9551,757.0938 L10.9551,772.0938 M23.9551,757.0938 L36.9551,772.0938" fill="none" style="stroke:#181818;stroke-width:0.5;"/></g><g class="participant participant-head" data-participant="Shell"><rect fill="#E2E2F0" height="30.2969" rx="2.5" ry="2.5" style="stroke:#181818;stroke-width:0.5;" width="160.002" x="98.2271" y="50"/><text fill="#000000" font-family="sans-serif" font-size="14" lengthAdjust="spacing" textLength="146.002" x="105.2271" y="69.9951">Minishell (main loop)</text></g><g class="participant participant-tail" data-participant="Shell"><rect fill="#E2E2F0" height="30.2969" rx="2.5" ry="2.5" style="stroke:#181818;stroke-width:0.5;" width="160.002" x="98.2271" y="697.2969"/><text fill="#000000" font-family="sans-serif" font-size="14" lengthAdjust="spacing" textLength="146.002" x="105.2271" y="717.292">Minishell (main loop)</text></g><g class="participant participant-head" data-participant="Parser"><rect fill="#E2E2F0" height="30.2969" rx="2.5" ry="2.5" style="stroke:#181818;stroke-width:0.5;" width="58.4404" x="349.6123" y="50"/><text fill="#000000" font-family="sans-serif" font-size="14" lengthAdjust="spacing" textLength="44.4404" x="356.6123" y="69.9951">Parser</text></g><g class="participant participant-tail" data-participant="Parser"><rect fill="#E2E2F0" height="30.2969" rx="2.5" ry="2.5" style="stroke:#181818;stroke-width:0.5;" width="58.4404" x="349.6123" y="697.2969"/><text fill="#000000" font-family="sans-serif" font-size="14" lengthAdjust="spacing" textLength="44.4404" x="356.6123" y="717.292">Parser</text></g><g class="participant participant-head" data-participant="Exec"><rect fill="#E2E2F0" height="30.2969" rx="2.5" ry="2.5" style="stroke:#181818;stroke-width:0.5;" width="135.5635" x="418.0527" y="50"/><text fill="#000000" font-family="sans-serif" font-size="14" lengthAdjust="spacing" textLength="121.5635" x="425.0527" y="69.9951">Execution Engine</text></g><g class="participant participant-tail" data-participant="Exec"><rect fill="#E2E2F0" height="30.2969" rx="2.5" ry="2.5" style="stroke:#181818;stroke-width:0.5;" width="135.5635" x="418.0527" y="697.2969"/><text fill="#000000" font-family="sans-serif" font-size="14" lengthAdjust="spacing" textLength="121.5635" x="425.0527" y="717.292">Execution Engine</text></g><g class="participant participant-head" data-participant="Path"><rect fill="#E2E2F0" height="30.2969" rx="2.5" ry="2.5" style="stroke:#181818;stroke-width:0.5;" width="110.5781" x="664.1514" y="50"/><text fill="#000000" font-family="sans-serif" font-size="14" lengthAdjust="spacing" textLength="96.5781" x="671.1514" y="69.9951">Path Resolver</text></g><g class="participant participant-tail" data-participant="Path"><rect fill="#E2E2F0" height="30.2969" rx="2.5" ry="2.5" style="stroke:#181818;stroke-width:0.5;" width="110.5781" x="664.1514" y="697.2969"/><text fill="#000000" font-family="sans-serif" font-size="14" lengthAdjust="spacing" textLength="96.5781" x="671.1514" y="717.292">Path Resolver</text></g><g class="participant participant-head" data-participant="Child"><rect fill="#E2E2F0" height="30.2969" rx="2.5" ry="2.5" style="stroke:#181818;stroke-width:0.5;" width="107.4268" x="784.7295" y="50"/><text fill="#000000" font-family="sans-serif" font-size="14" lengthAdjust="spacing" textLength="93.4268" x="791.7295" y="69.9951">Child Process</text></g><g class="participant participant-tail" data-participant="Child"><rect fill="#E2E2F0" height="30.2969" rx="2.5" ry="2.5" style="stroke:#181818;stroke-width:0.5;" width="107.4268" x="784.7295" y="697.2969"/><text fill="#000000" font-family="sans-serif" font-size="14" lengthAdjust="spacing" textLength="93.4268" x="791.7295" y="717.292">Child Process</text></g><g class="participant participant-head" data-participant="System"><rect fill="#E2E2F0" height="30.2969" rx="2.5" ry="2.5" style="stroke:#181818;stroke-width:0.5;" width="66.2061" x="993.5347" y="50"/><text fill="#000000" font-family="sans-serif" font-size="14" lengthAdjust="spacing" textLength="52.2061" x="1000.5347" y="69.9951">System</text></g><g class="participant participant-tail" data-participant="System"><rect fill="#E2E2F0" height="30.2969" rx="2.5" ry="2.5" style="stroke:#181818;stroke-width:0.5;" width="66.2061" x="993.5347" y="697.2969"/><text fill="#000000" font-family="sans-serif" font-size="14" lengthAdjust="spacing" textLength="52.2061" x="1000.5347" y="717.292">System</text></g><g class="message" data-participant-1="User" data-participant-2="Shell"><polygon fill="#181818" points="166.228,108.4297,176.228,112.4297,166.228,116.4297,170.228,112.4297" style="stroke:#181818;stroke-width:1;"/><line style="stroke:#181818;stroke-width:1;" x1="23.9551" x2="172.228" y1="112.4297" y2="112.4297"/><text fill="#000000" font-family="sans-serif" font-size="13" lengthAdjust="spacing" textLength="130.2729" x="30.9551" y="107.3638">Input command line</text></g><g class="message" data-participant-1="Shell" data-participant-2="Parser"><polygon fill="#181818" points="366.8325,137.5625,376.8325,141.5625,366.8325,145.5625,370.8325,141.5625" style="stroke:#181818;stroke-width:1;"/><line style="stroke:#181818;stroke-width:1;" x1="178.228" x2="372.8325" y1="141.5625" y2="141.5625"/><text fill="#000000" font-family="sans-serif" font-size="13" lengthAdjust="spacing" textLength="132.5327" x="185.228" y="136.4966">Parse command line</text></g><g class="message" data-participant-1="Parser" data-participant-2="Shell"><polygon fill="#181818" points="189.228,166.6953,179.228,170.6953,189.228,174.6953,185.228,170.6953" style="stroke:#181818;stroke-width:1;"/><line style="stroke:#181818;stroke-width:1;" x1="183.228" x2="377.8325" y1="170.6953" y2="170.6953"/><text fill="#000000" font-family="sans-serif" font-size="13" lengthAdjust="spacing" textLength="176.6045" x="195.228" y="165.6294">Parsed command structure</text></g><g class="message" data-participant-1="Shell" data-participant-2="Exec"><polygon fill="#181818" points="473.8345,195.8281,483.8345,199.8281,473.8345,203.8281,477.8345,199.8281" style="stroke:#181818;stroke-width:1;"/><line style="stroke:#181818;stroke-width:1;" x1="178.228" x2="479.8345" y1="199.8281" y2="199.8281"/><text fill="#000000" font-family="sans-serif" font-size="13" lengthAdjust="spacing" textLength="138.3218" x="185.228" y="194.7622">Execute command(s)</text></g><g class="message" data-participant-1="Exec" data-participant-2="Exec"><line style="stroke:#181818;stroke-width:1;" x1="485.8345" x2="527.8345" y1="228.9609" y2="228.9609"/><line style="stroke:#181818;stroke-width:1;" x1="527.8345" x2="527.8345" y1="228.9609" y2="241.9609"/><line style="stroke:#181818;stroke-width:1;" x1="486.8345" x2="527.8345" y1="241.9609" y2="241.9609"/><polygon fill="#181818" points="496.8345,237.9609,486.8345,241.9609,496.8345,245.9609,492.8345,241.9609" style="stroke:#181818;stroke-width:1;"/><text fill="#000000" font-family="sans-serif" font-size="13" lengthAdjust="spacing" textLength="97.1064" x="492.8345" y="223.895">Check if builtin</text></g><path d="M398.0527,256.9609 L462.4956,256.9609 L462.4956,264.0938 L452.4956,274.0938 L398.0527,274.0938 L398.0527,256.9609" fill="#EEEEEE" style="stroke:#000000;stroke-width:1.5;"/><rect fill="none" height="395.2031" style="stroke:#000000;stroke-width:1.5;" width="681.688" x="398.0527" y="256.9609"/><text fill="#000000" font-family="sans-serif" font-size="13" font-weight="bold" lengthAdjust="spacing" textLength="19.4429" x="413.0527" y="270.0278">alt</text><text fill="#000000" font-family="sans-serif" font-size="11" font-weight="bold" lengthAdjust="spacing" textLength="87.2642" x="477.4956" y="269.1714">[Not a builtin]</text><g class="message" data-participant-1="Exec" data-participant-2="Path"><polygon fill="#181818" points="707.4404,291.2266,717.4404,295.2266,707.4404,299.2266,711.4404,295.2266" style="stroke:#181818;stroke-width:1;"/><line style="stroke:#181818;stroke-width:1;" x1="485.8345" x2="713.4404" y1="295.2266" y2="295.2266"/><text fill="#000000" font-family="sans-serif" font-size="13" lengthAdjust="spacing" textLength="209.606" x="492.8345" y="290.1606">Resolve executable path (PATH)</text></g><g class="message" data-participant-1="Path" data-participant-2="Exec"><polygon fill="#181818" points="496.8345,320.3594,486.8345,324.3594,496.8345,328.3594,492.8345,324.3594" style="stroke:#181818;stroke-width:1;"/><line style="stroke:#181818;stroke-width:1;" x1="490.8345" x2="718.4404" y1="324.3594" y2="324.3594"/><text fill="#000000" font-family="sans-serif" font-size="13" lengthAdjust="spacing" textLength="105.9043" x="502.8345" y="319.2935">Executable path</text></g><g class="message" data-participant-1="Exec" data-participant-2="Exec"><line style="stroke:#181818;stroke-width:1;" x1="485.8345" x2="527.8345" y1="353.4922" y2="353.4922"/><line style="stroke:#181818;stroke-width:1;" x1="527.8345" x2="527.8345" y1="353.4922" y2="366.4922"/><line style="stroke:#181818;stroke-width:1;" x1="486.8345" x2="527.8345" y1="366.4922" y2="366.4922"/><polygon fill="#181818" points="496.8345,362.4922,486.8345,366.4922,496.8345,370.4922,492.8345,366.4922" style="stroke:#181818;stroke-width:1;"/><text fill="#000000" font-family="sans-serif" font-size="13" lengthAdjust="spacing" textLength="152.1914" x="492.8345" y="348.4263">Setup pipes (if needed)</text></g><g class="message" data-participant-1="Exec" data-participant-2="System"><polygon fill="#181818" points="1014.6377,391.625,1024.6377,395.625,1014.6377,399.625,1018.6377,395.625" style="stroke:#181818;stroke-width:1;"/><line style="stroke:#181818;stroke-width:1;" x1="485.8345" x2="1020.6377" y1="395.625" y2="395.625"/><text fill="#000000" font-family="sans-serif" font-size="13" lengthAdjust="spacing" textLength="35.5469" x="492.8345" y="390.5591">fork()</text></g><g class="message" data-participant-1="System" data-participant-2="Exec"><polygon fill="#181818" points="496.8345,420.7578,486.8345,424.7578,496.8345,428.7578,492.8345,424.7578" style="stroke:#181818;stroke-width:1;"/><line style="stroke:#181818;stroke-width:1;" x1="490.8345" x2="1025.6377" y1="424.7578" y2="424.7578"/><text fill="#000000" font-family="sans-serif" font-size="13" lengthAdjust="spacing" textLength="20.1157" x="502.8345" y="419.6919">pid</text></g><path d="M408.0527,439.7578 L472.4956,439.7578 L472.4956,446.8906 L462.4956,456.8906 L408.0527,456.8906 L408.0527,439.7578" fill="#EEEEEE" style="stroke:#000000;stroke-width:1.5;"/><rect fill="none" height="148.4688" style="stroke:#000000;stroke-width:1.5;" width="661.688" x="408.0527" y="439.7578"/><text fill="#000000" font-family="sans-serif" font-size="13" font-weight="bold" lengthAdjust="spacing" textLength="19.4429" x="423.0527" y="452.8247">alt</text><text fill="#000000" font-family="sans-serif" font-size="11" font-weight="bold" lengthAdjust="spacing" textLength="93.1348" x="487.4956" y="451.9683">[Child process]</text><g class="message" data-participant-1="Exec" data-participant-2="Child"><polygon fill="#181818" points="826.4429,474.0234,836.4429,478.0234,826.4429,482.0234,830.4429,478.0234" style="stroke:#181818;stroke-width:1;"/><line style="stroke:#181818;stroke-width:1;" x1="485.8345" x2="832.4429" y1="478.0234" y2="478.0234"/><text fill="#000000" font-family="sans-serif" font-size="13" lengthAdjust="spacing" textLength="119.3423" x="492.8345" y="472.9575">Setup redirections</text></g><g class="message" data-participant-1="Child" data-participant-2="System"><polygon fill="#181818" points="1014.6377,503.1563,1024.6377,507.1563,1014.6377,511.1563,1018.6377,507.1563" style="stroke:#181818;stroke-width:1;"/><line style="stroke:#181818;stroke-width:1;" x1="838.4429" x2="1020.6377" y1="507.1563" y2="507.1563"/><text fill="#000000" font-family="sans-serif" font-size="13" lengthAdjust="spacing" textLength="164.1948" x="845.4429" y="502.0903">execve(path, argv, envp)</text></g><line style="stroke:#000000;stroke-width:1;stroke-dasharray:2.0,2.0;" x1="408.0527" x2="1069.7407" y1="516.1563" y2="516.1563"/><text fill="#000000" font-family="sans-serif" font-size="11" font-weight="bold" lengthAdjust="spacing" textLength="103.2754" x="413.0527" y="526.3667">[Parent process]</text><g class="message" data-participant-1="Exec" data-participant-2="System"><polygon fill="#181818" points="1014.6377,547.0938,1024.6377,551.0938,1014.6377,555.0938,1018.6377,551.0938" style="stroke:#181818;stroke-width:1;"/><line style="stroke:#181818;stroke-width:1;" x1="485.8345" x2="1020.6377" y1="551.0938" y2="551.0938"/><text fill="#000000" font-family="sans-serif" font-size="13" lengthAdjust="spacing" textLength="77.6826" x="492.8345" y="546.0278">waitpid(pid)</text></g><g class="message" data-participant-1="System" data-participant-2="Exec"><polygon fill="#181818" points="496.8345,576.2266,486.8345,580.2266,496.8345,584.2266,492.8345,580.2266" style="stroke:#181818;stroke-width:1;"/><line style="stroke:#181818;stroke-width:1;" x1="490.8345" x2="1025.6377" y1="580.2266" y2="580.2266"/><text fill="#000000" font-family="sans-serif" font-size="13" lengthAdjust="spacing" textLength="68.6943" x="502.8345" y="575.1606">Exit status</text></g><line style="stroke:#000000;stroke-width:1;stroke-dasharray:2.0,2.0;" x1="398.0527" x2="1079.7407" y1="596.2266" y2="596.2266"/><text fill="#000000" font-family="sans-serif" font-size="11" font-weight="bold" lengthAdjust="spacing" textLength="50.6709" x="403.0527" y="606.437">[Builtin]</text><g class="message" data-participant-1="Exec" data-participant-2="Exec"><line style="stroke:#181818;stroke-width:1;" x1="485.8345" x2="527.8345" y1="631.1641" y2="631.1641"/><line style="stroke:#181818;stroke-width:1;" x1="527.8345" x2="527.8345" y1="631.1641" y2="644.1641"/><line style="stroke:#181818;stroke-width:1;" x1="486.8345" x2="527.8345" y1="644.1641" y2="644.1641"/><polygon fill="#181818" points="496.8345,640.1641,486.8345,644.1641,496.8345,648.1641,492.8345,644.1641" style="stroke:#181818;stroke-width:1;"/><text fill="#000000" font-family="sans-serif" font-size="13" lengthAdjust="spacing" textLength="150.0713" x="492.8345" y="626.0981">Execute builtin directly</text></g><g class="message" data-participant-1="Exec" data-participant-2="Shell"><polygon fill="#181818" points="189.228,676.2969,179.228,680.2969,189.228,684.2969,185.228,680.2969" style="stroke:#181818;stroke-width:1;"/><line style="stroke:#181818;stroke-width:1;" x1="183.228" x2="484.8345" y1="680.2969" y2="680.2969"/><text fill="#000000" font-family="sans-serif" font-size="13" lengthAdjust="spacing" textLength="135.2876" x="195.228" y="675.231">Return status/output</text></g><!--SRC=[TPBRQiCm38Rl_HIYLmbqxBuNWwqKjekDqcuFuCPgO-hOnbQozktdGmvDjmK2Hl_dNv8bNf5nyENHCSiToKfQhWaMxr9BNwDIK3HSQb36s781tCC-HkVmbhjWaDHydCkR2rOjIQDXeqzIOm9ZyDw5QjYXDweRpQYUC-jQAW5RPohqFZ4fCeVsLq_Ov6BJaR7O83myvU9X1M_QjWILQHgk1QXG5CjIO78B0Kg7ETHhDquf8aRAasihQXsooJ2s6iZy3ADXuKkMb8bOrrYTGHxXq4f5KZEk23uC0HyZ4BxXLdgmrV1aWCcV7nI2ZKgnVVvyBTEDHDvNCf8pqnxP8xKMhBJeeGWLQKI1efoX-N43V3JkN6IjZqr6Leean5Roz6oUNehUscLrIErGI8TLN9i9pSXjwjXqXqLiOmdSdRebeEviBWPLc5yO48Qj-2_hwFJD9OLYY_2N8_MhdSr5KXWofpPReHOifNdvOq1tW-zd2BanTMNnyhW3mqBjGljEzpaUJKjXKty0]--></g></svg>