<svg xmlns="http://www.w3.org/2000/svg" xmlns:xlink="http://www.w3.org/1999/xlink" contentStyleType="text/css" data-diagram-type="SEQUENCE" height="1019px" preserveAspectRatio="none" style="width:1455px;height:1019px;background:#FFFFFF;" version="1.1" viewBox="0 0 1455 1019" width="1455px" zoomAndPan="magnify"><defs/><g><rect fill="none" height="364.4609" style="stroke:#000000;stroke-width:1.5;" width="1439.4736" x="10" y="341.2266"/><rect fill="none" height="177.7969" style="stroke:#000000;stroke-width:1.5;" width="1419.4736" x="20" y="436.625"/><rect fill="none" height="46.2656" style="stroke:#000000;stroke-width:1.5;" width="459.8003" x="969.6733" y="519.0234"/><rect fill="none" height="130.5313" style="stroke:#000000;stroke-width:1.5;" width="669.3799" x="703.2432" y="719.6875"/><g><title>User</title><rect fill="#000000" fill-opacity="0.00000" height="857.1875" width="8" x="44.9551" y="81.2969"/><line style="stroke:#181818;stroke-width:0.5;stroke-dasharray:5.0,5.0;" x1="48" x2="48" y1="81.2969" y2="938.4844"/></g><g><title>Minishell</title><rect fill="#000000" fill-opacity="0.00000" height="857.1875" width="8" x="342.355" y="81.2969"/><line style="stroke:#181818;stroke-width:0.5;stroke-dasharray:5.0,5.0;" x1="345.7095" x2="345.7095" y1="81.2969" y2="938.4844"/></g><g><title>Command Parser</title><rect fill="#000000" fill-opacity="0.00000" height="857.1875" width="8" x="631.8203" y="81.2969"/><line style="stroke:#181818;stroke-width:0.5;stroke-dasharray:5.0,5.0;" x1="635.3975" x2="635.3975" y1="81.2969" y2="938.4844"/></g><g><title>Heredoc Handler</title><rect fill="#000000" fill-opacity="0.00000" height="857.1875" width="8" x="775.3604" y="81.2969"/><line style="stroke:#181818;stroke-width:0.5;stroke-dasharray:5.0,5.0;" x1="779.2432" x2="779.2432" y1="81.2969" y2="938.4844"/></g><g><title>Child Process</title><rect fill="#000000" fill-opacity="0.00000" height="857.1875" width="8" x="1029.3867" y="81.2969"/><line style="stroke:#181818;stroke-width:0.5;stroke-dasharray:5.0,5.0;" x1="1032.6733" x2="1032.6733" y1="81.2969" y2="938.4844"/></g><g><title>Parent Process</title><rect fill="#000000" fill-opacity="0.00000" height="857.1875" width="8" x="1201.0498" y="81.2969"/><line style="stroke:#181818;stroke-width:0.5;stroke-dasharray:5.0,5.0;" x1="1204.1172" x2="1204.1172" y1="81.2969" y2="938.4844"/></g><g><title>Environment</title><rect fill="#000000" fill-opacity="0.00000" height="857.1875" width="8" x="1363.623" y="81.2969"/><line style="stroke:#181818;stroke-width:0.5;stroke-dasharray:5.0,5.0;" x1="1366.7725" x2="1366.7725" y1="81.2969" y2="938.4844"/></g><g class="participant participant-head" data-participant="User"><text fill="#000000" font-family="sans-serif" font-size="14" lengthAdjust="spacing" textLength="31.9102" x="30" y="77.9951">User</text><ellipse cx="48.9551" cy="13.5" fill="#E2E2F0" rx="8" ry="8" style="stroke:#181818;stroke-width:0.5;"/><path d="M48.9551,21.5 L48.9551,48.5 M35.9551,29.5 L61.9551,29.5 M48.9551,48.5 L35.9551,63.5 M48.9551,48.5 L61.9551,63.5" fill="none" style="stroke:#181818;stroke-width:0.5;"/></g><g class="participant participant-tail" data-participant="User"><text fill="#000000" font-family="sans-serif" font-size="14" lengthAdjust="spacing" textLength="31.9102" x="30" y="950.4795">User</text><ellipse cx="48.9551" cy="962.2813" fill="#E2E2F0" rx="8" ry="8" style="stroke:#181818;stroke-width:0.5;"/><path d="M48.9551,970.2813 L48.9551,997.2813 M35.9551,978.2813 L61.9551,978.2813 M48.9551,997.2813 L35.9551,1012.2813 M48.9551,997.2813 L61.9551,1012.2813" fill="none" style="stroke:#181818;stroke-width:0.5;"/></g><g class="participant participant-head" data-participant="Shell"><rect fill="#E2E2F0" height="30.2969" rx="2.5" ry="2.5" style="stroke:#181818;stroke-width:0.5;" width="75.291" x="308.7095" y="50"/><text fill="#000000" font-family="sans-serif" font-size="14" lengthAdjust="spacing" textLength="61.291" x="315.7095" y="69.9951">Minishell</text></g><g class="participant participant-tail" data-participant="Shell"><rect fill="#E2E2F0" height="30.2969" rx="2.5" ry="2.5" style="stroke:#181818;stroke-width:0.5;" width="75.291" x="308.7095" y="937.4844"/><text fill="#000000" font-family="sans-serif" font-size="14" lengthAdjust="spacing" textLength="61.291" x="315.7095" y="957.4795">Minishell</text></g><g class="participant participant-head" data-participant="Parser"><rect fill="#E2E2F0" height="30.2969" rx="2.5" ry="2.5" style="stroke:#181818;stroke-width:0.5;" width="134.8457" x="568.3975" y="50"/><text fill="#000000" font-family="sans-serif" font-size="14" lengthAdjust="spacing" textLength="120.8457" x="575.3975" y="69.9951">Command Parser</text></g><g class="participant participant-tail" data-participant="Parser"><rect fill="#E2E2F0" height="30.2969" rx="2.5" ry="2.5" style="stroke:#181818;stroke-width:0.5;" width="134.8457" x="568.3975" y="937.4844"/><text fill="#000000" font-family="sans-serif" font-size="14" lengthAdjust="spacing" textLength="120.8457" x="575.3975" y="957.4795">Command Parser</text></g><g class="participant participant-head" data-participant="Heredoc"><rect fill="#E2E2F0" height="30.2969" rx="2.5" ry="2.5" style="stroke:#181818;stroke-width:0.5;" width="132.2344" x="713.2432" y="50"/><text fill="#000000" font-family="sans-serif" font-size="14" lengthAdjust="spacing" textLength="118.2344" x="720.2432" y="69.9951">Heredoc Handler</text></g><g class="participant participant-tail" data-participant="Heredoc"><rect fill="#E2E2F0" height="30.2969" rx="2.5" ry="2.5" style="stroke:#181818;stroke-width:0.5;" width="132.2344" x="713.2432" y="937.4844"/><text fill="#000000" font-family="sans-serif" font-size="14" lengthAdjust="spacing" textLength="118.2344" x="720.2432" y="957.4795">Heredoc Handler</text></g><g class="participant participant-head" data-participant="Child"><rect fill="#E2E2F0" height="30.2969" rx="2.5" ry="2.5" style="stroke:#181818;stroke-width:0.5;" width="107.4268" x="979.6733" y="50"/><text fill="#000000" font-family="sans-serif" font-size="14" lengthAdjust="spacing" textLength="93.4268" x="986.6733" y="69.9951">Child Process</text></g><g class="participant participant-tail" data-participant="Child"><rect fill="#E2E2F0" height="30.2969" rx="2.5" ry="2.5" style="stroke:#181818;stroke-width:0.5;" width="107.4268" x="979.6733" y="937.4844"/><text fill="#000000" font-family="sans-serif" font-size="14" lengthAdjust="spacing" textLength="93.4268" x="986.6733" y="957.4795">Child Process</text></g><g class="participant participant-head" data-participant="Parent"><rect fill="#E2E2F0" height="30.2969" rx="2.5" ry="2.5" style="stroke:#181818;stroke-width:0.5;" width="117.8652" x="1146.1172" y="50"/><text fill="#000000" font-family="sans-serif" font-size="14" lengthAdjust="spacing" textLength="103.8652" x="1153.1172" y="69.9951">Parent Process</text></g><g class="participant participant-tail" data-participant="Parent"><rect fill="#E2E2F0" height="30.2969" rx="2.5" ry="2.5" style="stroke:#181818;stroke-width:0.5;" width="117.8652" x="1146.1172" y="937.4844"/><text fill="#000000" font-family="sans-serif" font-size="14" lengthAdjust="spacing" textLength="103.8652" x="1153.1172" y="957.4795">Parent Process</text></g><g class="participant participant-head" data-participant="Env"><rect fill="#E2E2F0" height="30.2969" rx="2.5" ry="2.5" style="stroke:#181818;stroke-width:0.5;" width="103.7012" x="1315.7725" y="50"/><text fill="#000000" font-family="sans-serif" font-size="14" lengthAdjust="spacing" textLength="89.7012" x="1322.7725" y="69.9951">Environment</text></g><g class="participant participant-tail" data-participant="Env"><rect fill="#E2E2F0" height="30.2969" rx="2.5" ry="2.5" style="stroke:#181818;stroke-width:0.5;" width="103.7012" x="1315.7725" y="937.4844"/><text fill="#000000" font-family="sans-serif" font-size="14" lengthAdjust="spacing" textLength="89.7012" x="1322.7725" y="957.4795">Environment</text></g><g class="message" data-participant-1="User" data-participant-2="Shell"><polygon fill="#181818" points="334.355,108.4297,344.355,112.4297,334.355,116.4297,338.355,112.4297" style="stroke:#181818;stroke-width:1;"/><line style="stroke:#181818;stroke-width:1;" x1="48.9551" x2="340.355" y1="112.4297" y2="112.4297"/><text fill="#000000" font-family="sans-serif" font-size="13" lengthAdjust="spacing" textLength="273.3999" x="55.9551" y="107.3638">Enter command with heredoc (&lt;&lt; DELIM)</text></g><g class="message" data-participant-1="Shell" data-participant-2="Parser"><polygon fill="#181818" points="623.8203,137.5625,633.8203,141.5625,623.8203,145.5625,627.8203,141.5625" style="stroke:#181818;stroke-width:1;"/><line style="stroke:#181818;stroke-width:1;" x1="346.355" x2="629.8203" y1="141.5625" y2="141.5625"/><text fill="#000000" font-family="sans-serif" font-size="13" lengthAdjust="spacing" textLength="104.9395" x="353.355" y="136.4966">Parse command</text></g><g class="message" data-participant-1="Parser" data-participant-2="Shell"><polygon fill="#181818" points="357.355,166.6953,347.355,170.6953,357.355,174.6953,353.355,170.6953" style="stroke:#181818;stroke-width:1;"/><line style="stroke:#181818;stroke-width:1;" x1="351.355" x2="634.8203" y1="170.6953" y2="170.6953"/><text fill="#000000" font-family="sans-serif" font-size="13" lengthAdjust="spacing" textLength="265.4653" x="363.355" y="165.6294">Structured command (with heredoc info)</text></g><g class="message" data-participant-1="Shell" data-participant-2="Heredoc"><polygon fill="#181818" points="767.3604,195.8281,777.3604,199.8281,767.3604,203.8281,771.3604,199.8281" style="stroke:#181818;stroke-width:1;"/><line style="stroke:#181818;stroke-width:1;" x1="346.355" x2="773.3604" y1="199.8281" y2="199.8281"/><text fill="#000000" font-family="sans-serif" font-size="13" lengthAdjust="spacing" textLength="176.5664" x="353.355" y="194.7622">check_here_doc(shell, env)</text></g><g class="message" data-participant-1="Heredoc" data-participant-2="Heredoc"><line style="stroke:#181818;stroke-width:1;" x1="779.3604" x2="821.3604" y1="228.9609" y2="228.9609"/><line style="stroke:#181818;stroke-width:1;" x1="821.3604" x2="821.3604" y1="228.9609" y2="241.9609"/><line style="stroke:#181818;stroke-width:1;" x1="780.3604" x2="821.3604" y1="241.9609" y2="241.9609"/><polygon fill="#181818" points="790.3604,237.9609,780.3604,241.9609,790.3604,245.9609,786.3604,241.9609" style="stroke:#181818;stroke-width:1;"/><text fill="#000000" font-family="sans-serif" font-size="13" lengthAdjust="spacing" textLength="188.0557" x="786.3604" y="223.895">For each heredoc redirection</text></g><g class="message" data-participant-1="Heredoc" data-participant-2="Heredoc"><line style="stroke:#181818;stroke-width:1;" x1="779.3604" x2="821.3604" y1="271.0938" y2="271.0938"/><line style="stroke:#181818;stroke-width:1;" x1="821.3604" x2="821.3604" y1="271.0938" y2="284.0938"/><line style="stroke:#181818;stroke-width:1;" x1="780.3604" x2="821.3604" y1="284.0938" y2="284.0938"/><polygon fill="#181818" points="790.3604,280.0938,780.3604,284.0938,790.3604,288.0938,786.3604,284.0938" style="stroke:#181818;stroke-width:1;"/><text fill="#000000" font-family="sans-serif" font-size="13" lengthAdjust="spacing" textLength="75.7275" x="786.3604" y="266.0278">Create pipe</text></g><g class="message" data-participant-1="Heredoc" data-participant-2="Heredoc"><line style="stroke:#181818;stroke-width:1;" x1="779.3604" x2="821.3604" y1="313.2266" y2="313.2266"/><line style="stroke:#181818;stroke-width:1;" x1="821.3604" x2="821.3604" y1="313.2266" y2="326.2266"/><line style="stroke:#181818;stroke-width:1;" x1="780.3604" x2="821.3604" y1="326.2266" y2="326.2266"/><polygon fill="#181818" points="790.3604,322.2266,780.3604,326.2266,790.3604,330.2266,786.3604,326.2266" style="stroke:#181818;stroke-width:1;"/><text fill="#000000" font-family="sans-serif" font-size="13" lengthAdjust="spacing" textLength="82.6782" x="786.3604" y="308.1606">Fork process</text></g><path d="M10,341.2266 L74.4429,341.2266 L74.4429,348.3594 L64.4429,358.3594 L10,358.3594 L10,341.2266" fill="#EEEEEE" style="stroke:#000000;stroke-width:1.5;"/><rect fill="none" height="364.4609" style="stroke:#000000;stroke-width:1.5;" width="1439.4736" x="10" y="341.2266"/><text fill="#000000" font-family="sans-serif" font-size="13" font-weight="bold" lengthAdjust="spacing" textLength="19.4429" x="25" y="354.2935">alt</text><text fill="#000000" font-family="sans-serif" font-size="11" font-weight="bold" lengthAdjust="spacing" textLength="93.3228" x="89.4429" y="353.437">[Child Process]</text><g class="message" data-participant-1="Heredoc" data-participant-2="Child"><polygon fill="#181818" points="1021.3867,375.4922,1031.3867,379.4922,1021.3867,383.4922,1025.3867,379.4922" style="stroke:#181818;stroke-width:1;"/><line style="stroke:#181818;stroke-width:1;" x1="779.3604" x2="1027.3867" y1="379.4922" y2="379.4922"/><text fill="#000000" font-family="sans-serif" font-size="13" lengthAdjust="spacing" textLength="230.0264" x="786.3604" y="374.4263">open_here_doc(heredoc, pipe, env)</text></g><g class="message" data-participant-1="Child" data-participant-2="Child"><line style="stroke:#181818;stroke-width:1;" x1="1033.3867" x2="1075.3867" y1="408.625" y2="408.625"/><line style="stroke:#181818;stroke-width:1;" x1="1075.3867" x2="1075.3867" y1="408.625" y2="421.625"/><line style="stroke:#181818;stroke-width:1;" x1="1034.3867" x2="1075.3867" y1="421.625" y2="421.625"/><polygon fill="#181818" points="1044.3867,417.625,1034.3867,421.625,1044.3867,425.625,1040.3867,421.625" style="stroke:#181818;stroke-width:1;"/><text fill="#000000" font-family="sans-serif" font-size="13" lengthAdjust="spacing" textLength="157.6631" x="1040.3867" y="403.5591">setup_heredoc_signals()</text></g><path d="M20,436.625 L96.624,436.625 L96.624,443.7578 L86.624,453.7578 L20,453.7578 L20,436.625" fill="#EEEEEE" style="stroke:#000000;stroke-width:1.5;"/><rect fill="none" height="177.7969" style="stroke:#000000;stroke-width:1.5;" width="1419.4736" x="20" y="436.625"/><text fill="#000000" font-family="sans-serif" font-size="13" font-weight="bold" lengthAdjust="spacing" textLength="31.624" x="35" y="449.6919">loop</text><text fill="#000000" font-family="sans-serif" font-size="11" font-weight="bold" lengthAdjust="spacing" textLength="157.3569" x="111.624" y="448.8354">[Until delimiter matched]</text><g class="message" data-participant-1="Child" data-participant-2="User"><polygon fill="#181818" points="59.9551,470.8906,49.9551,474.8906,59.9551,478.8906,55.9551,474.8906" style="stroke:#181818;stroke-width:1;"/><line style="stroke:#181818;stroke-width:1;" x1="53.9551" x2="1032.3867" y1="474.8906" y2="474.8906"/><text fill="#000000" font-family="sans-serif" font-size="13" lengthAdjust="spacing" textLength="136.0303" x="65.9551" y="469.8247">Prompt for input (&gt; )</text></g><g class="message" data-participant-1="User" data-participant-2="Child"><polygon fill="#181818" points="1021.3867,500.0234,1031.3867,504.0234,1021.3867,508.0234,1025.3867,504.0234" style="stroke:#181818;stroke-width:1;"/><line style="stroke:#181818;stroke-width:1;" x1="48.9551" x2="1027.3867" y1="504.0234" y2="504.0234"/><text fill="#000000" font-family="sans-serif" font-size="13" lengthAdjust="spacing" textLength="62.4863" x="55.9551" y="498.9575">Enter line</text></g><path d="M969.6733,519.0234 L1034.1162,519.0234 L1034.1162,526.1563 L1024.1162,536.1563 L969.6733,536.1563 L969.6733,519.0234" fill="#EEEEEE" style="stroke:#000000;stroke-width:1.5;"/><rect fill="none" height="46.2656" style="stroke:#000000;stroke-width:1.5;" width="459.8003" x="969.6733" y="519.0234"/><text fill="#000000" font-family="sans-serif" font-size="13" font-weight="bold" lengthAdjust="spacing" textLength="19.4429" x="984.6733" y="532.0903">alt</text><text fill="#000000" font-family="sans-serif" font-size="11" font-weight="bold" lengthAdjust="spacing" textLength="127.021" x="1049.1162" y="531.2339">[Expansion enabled]</text><g class="message" data-participant-1="Child" data-participant-2="Env"><polygon fill="#181818" points="1355.623,553.2891,1365.623,557.2891,1355.623,561.2891,1359.623,557.2891" style="stroke:#181818;stroke-width:1;"/><line style="stroke:#181818;stroke-width:1;" x1="1033.3867" x2="1361.623" y1="557.2891" y2="557.2891"/><text fill="#000000" font-family="sans-serif" font-size="13" lengthAdjust="spacing" textLength="155.543" x="1040.3867" y="552.2231">Expand variables in line</text></g><g class="message" data-participant-1="Child" data-participant-2="Child"><line style="stroke:#181818;stroke-width:1;" x1="1033.3867" x2="1075.3867" y1="593.4219" y2="593.4219"/><line style="stroke:#181818;stroke-width:1;" x1="1075.3867" x2="1075.3867" y1="593.4219" y2="606.4219"/><line style="stroke:#181818;stroke-width:1;" x1="1034.3867" x2="1075.3867" y1="606.4219" y2="606.4219"/><polygon fill="#181818" points="1044.3867,602.4219,1034.3867,606.4219,1044.3867,610.4219,1040.3867,606.4219" style="stroke:#181818;stroke-width:1;"/><text fill="#000000" font-family="sans-serif" font-size="13" lengthAdjust="spacing" textLength="130.9077" x="1040.3867" y="588.356">Accumulate content</text></g><g class="message" data-participant-1="Child" data-participant-2="Child"><line style="stroke:#181818;stroke-width:1;" x1="1033.3867" x2="1075.3867" y1="642.5547" y2="642.5547"/><line style="stroke:#181818;stroke-width:1;" x1="1075.3867" x2="1075.3867" y1="642.5547" y2="655.5547"/><line style="stroke:#181818;stroke-width:1;" x1="1034.3867" x2="1075.3867" y1="655.5547" y2="655.5547"/><polygon fill="#181818" points="1044.3867,651.5547,1034.3867,655.5547,1044.3867,659.5547,1040.3867,655.5547" style="stroke:#181818;stroke-width:1;"/><text fill="#000000" font-family="sans-serif" font-size="13" lengthAdjust="spacing" textLength="138.2393" x="1040.3867" y="637.4888">Write content to pipe</text></g><g class="message" data-participant-1="Child" data-participant-2="Child"><line style="stroke:#181818;stroke-width:1;" x1="1033.3867" x2="1075.3867" y1="684.6875" y2="684.6875"/><line style="stroke:#181818;stroke-width:1;" x1="1075.3867" x2="1075.3867" y1="684.6875" y2="697.6875"/><line style="stroke:#181818;stroke-width:1;" x1="1034.3867" x2="1075.3867" y1="697.6875" y2="697.6875"/><polygon fill="#181818" points="1044.3867,693.6875,1034.3867,697.6875,1044.3867,701.6875,1040.3867,697.6875" style="stroke:#181818;stroke-width:1;"/><text fill="#000000" font-family="sans-serif" font-size="13" lengthAdjust="spacing" textLength="24.6162" x="1040.3867" y="679.6216">Exit</text></g><path d="M703.2432,719.6875 L767.686,719.6875 L767.686,726.8203 L757.686,736.8203 L703.2432,736.8203 L703.2432,719.6875" fill="#EEEEEE" style="stroke:#000000;stroke-width:1.5;"/><rect fill="none" height="130.5313" style="stroke:#000000;stroke-width:1.5;" width="669.3799" x="703.2432" y="719.6875"/><text fill="#000000" font-family="sans-serif" font-size="13" font-weight="bold" lengthAdjust="spacing" textLength="19.4429" x="718.2432" y="732.7544">alt</text><text fill="#000000" font-family="sans-serif" font-size="11" font-weight="bold" lengthAdjust="spacing" textLength="103.4634" x="782.686" y="731.8979">[Parent Process]</text><g class="message" data-participant-1="Heredoc" data-participant-2="Parent"><polygon fill="#181818" points="1193.0498,753.9531,1203.0498,757.9531,1193.0498,761.9531,1197.0498,757.9531" style="stroke:#181818;stroke-width:1;"/><line style="stroke:#181818;stroke-width:1;" x1="779.3604" x2="1199.0498" y1="757.9531" y2="757.9531"/><text fill="#000000" font-family="sans-serif" font-size="13" lengthAdjust="spacing" textLength="256.3057" x="786.3604" y="752.8872">parent(pipe, child_pid, status, heredoc)</text></g><g class="message" data-participant-1="Parent" data-participant-2="Parent"><line style="stroke:#181818;stroke-width:1;" x1="1205.0498" x2="1247.0498" y1="787.0859" y2="787.0859"/><line style="stroke:#181818;stroke-width:1;" x1="1247.0498" x2="1247.0498" y1="787.0859" y2="800.0859"/><line style="stroke:#181818;stroke-width:1;" x1="1206.0498" x2="1247.0498" y1="800.0859" y2="800.0859"/><polygon fill="#181818" points="1216.0498,796.0859,1206.0498,800.0859,1216.0498,804.0859,1212.0498,800.0859" style="stroke:#181818;stroke-width:1;"/><text fill="#000000" font-family="sans-serif" font-size="13" lengthAdjust="spacing" textLength="86.5313" x="1212.0498" y="782.02">Wait for child</text></g><g class="message" data-participant-1="Parent" data-participant-2="Parent"><line style="stroke:#181818;stroke-width:1;" x1="1205.0498" x2="1247.0498" y1="829.2188" y2="829.2188"/><line style="stroke:#181818;stroke-width:1;" x1="1247.0498" x2="1247.0498" y1="829.2188" y2="842.2188"/><line style="stroke:#181818;stroke-width:1;" x1="1206.0498" x2="1247.0498" y1="842.2188" y2="842.2188"/><polygon fill="#181818" points="1216.0498,838.2188,1206.0498,842.2188,1216.0498,846.2188,1212.0498,842.2188" style="stroke:#181818;stroke-width:1;"/><text fill="#000000" font-family="sans-serif" font-size="13" lengthAdjust="spacing" textLength="148.5732" x="1212.0498" y="824.1528">Store heredoc fd if last</text></g><g class="message" data-participant-1="Heredoc" data-participant-2="Shell"><polygon fill="#181818" points="357.355,874.3516,347.355,878.3516,357.355,882.3516,353.355,878.3516" style="stroke:#181818;stroke-width:1;"/><line style="stroke:#181818;stroke-width:1;" x1="351.355" x2="778.3604" y1="878.3516" y2="878.3516"/><text fill="#000000" font-family="sans-serif" font-size="13" lengthAdjust="spacing" textLength="119.5898" x="363.355" y="873.2856">Heredoc fds ready</text></g><g class="message" data-participant-1="Shell" data-participant-2="Shell"><line style="stroke:#181818;stroke-width:1;" x1="346.355" x2="388.355" y1="907.4844" y2="907.4844"/><line style="stroke:#181818;stroke-width:1;" x1="388.355" x2="388.355" y1="907.4844" y2="920.4844"/><line style="stroke:#181818;stroke-width:1;" x1="347.355" x2="388.355" y1="920.4844" y2="920.4844"/><polygon fill="#181818" points="357.355,916.4844,347.355,920.4844,357.355,924.4844,353.355,920.4844" style="stroke:#181818;stroke-width:1;"/><text fill="#000000" font-family="sans-serif" font-size="13" lengthAdjust="spacing" textLength="252.916" x="353.355" y="902.4185">Continue execution with heredoc input</text></g><!--SRC=[TPJDYjim4CVlVefXJmvaNo24XPAcfD25XH3sQ5HvKWyhIqAIi-dRTsJ9ZfLcSqYKyM_-yoaB6Oo3aqTNMU42IR921tXw9Ks-GwMUG7WunbC9x4pV2zt2ct3iF5BfM687TDWQ2GTcLUQoxKwl8yLgpaZqViH6Imbn1EJV9PLC9RRN5t96z_nWPFX_LSKQuVabrG8RDWOso5p69uKEkfnilTt2z_sldw-hAj7ibefZl_4m-LNPlD0z1ZV8CB3IB5uNwgJFPY4yTMW3iaFvqKIiOKCzjdyDg2-hQe8A_WTF3eMyAVCtEPI1Z7xiiNCe0e8bYrzAVe1DxQs42b2CfGB-BFpImmqOY_gMTyvcFOR9-KV7H2_SF8R1DXblFFtHGlawmSeO2oSTI46BYdgAm-f5u1wr8r0edl9edEbjW3FtXRGT0jGli9hfQG6cy6a156cSaLZn_ifBvBc5dBduhHRXYf2yKr4ZmYrSXAF8UevRAg9-aEwKmJSfXtvGSIJIS3QynqkV__XtHpSKWac3V8ZkhnIgA1HBAg_D_HJpqmtOyL2diSaer5Xgr-2328DVJskMEfgzblxlWbBpHz-lg2E_S71UsNCBT0ObVCestOhjys8b3pFfUS55-_TsTQOhj-EEa1uGy8foYEiFTpUEb-4V]--></g></svg>