<svg xmlns="http://www.w3.org/2000/svg" xmlns:xlink="http://www.w3.org/1999/xlink" contentStyleType="text/css" data-diagram-type="ACTIVITY" height="653px" preserveAspectRatio="none" style="width:762px;height:653px;background:#FFFFFF;" version="1.1" viewBox="0 0 762 653" width="762px" zoomAndPan="magnify"><title>Minishell - Lexical Analysis (Lexer) Activity Diagram</title><defs/><g><g class="title" data-source-line="1"><text fill="#000000" font-family="sans-serif" font-size="14" font-weight="bold" lengthAdjust="spacing" textLength="410.2109" x="174.6035" y="32.9951">Minishell - Lexical Analysis (Lexer) Activity Diagram</text></g><ellipse cx="314.791" cy="57.2969" fill="#222222" rx="10" ry="10" style="stroke:#222222;stroke-width:1;"/><rect fill="#F1F1F1" height="33.9688" rx="12.5" ry="12.5" style="stroke:#181818;stroke-width:0.5;" width="166.3789" x="231.6016" y="87.2969"/><text fill="#000000" font-family="sans-serif" font-size="12" lengthAdjust="spacing" textLength="146.3789" x="241.6016" y="108.4355">Receive raw input string</text><rect fill="#F1F1F1" height="33.9688" rx="12.5" ry="12.5" style="stroke:#181818;stroke-width:0.5;" width="129.459" x="250.0615" y="141.2656"/><text fill="#000000" font-family="sans-serif" font-size="12" lengthAdjust="spacing" textLength="109.459" x="260.0615" y="162.4043">Initialize token list</text><rect fill="#F1F1F1" height="33.9688" rx="12.5" ry="12.5" style="stroke:#181818;stroke-width:0.5;" width="117.377" x="256.1025" y="239.2344"/><text fill="#000000" font-family="sans-serif" font-size="12" lengthAdjust="spacing" textLength="97.377" x="266.1025" y="260.373">Skip whitespace</text><polygon fill="#F1F1F1" points="253.335,293.2031,376.2471,293.2031,388.2471,305.2031,376.2471,317.2031,253.335,317.2031,241.335,305.2031,253.335,293.2031" style="stroke:#181818;stroke-width:0.5;"/><text fill="#000000" font-family="sans-serif" font-size="11" lengthAdjust="spacing" textLength="122.9121" x="253.335" y="309.0112">Current char is quote?</text><text fill="#000000" font-family="sans-serif" font-size="11" lengthAdjust="spacing" textLength="19.0083" x="222.3267" y="302.6089">yes</text><text fill="#000000" font-family="sans-serif" font-size="11" lengthAdjust="spacing" textLength="13.7017" x="388.2471" y="302.6089">no</text><rect fill="#F1F1F1" height="33.9688" rx="12.5" ry="12.5" style="stroke:#181818;stroke-width:0.5;" width="179.8789" x="59.2344" y="327.2031"/><text fill="#000000" font-family="sans-serif" font-size="12" lengthAdjust="spacing" textLength="159.8789" x="69.2344" y="348.3418">Read until matching quote</text><rect fill="#F1F1F1" height="33.9688" rx="12.5" ry="12.5" style="stroke:#181818;stroke-width:0.5;" width="222.3477" x="38" y="396.1719"/><text fill="#000000" font-family="sans-serif" font-size="12" lengthAdjust="spacing" textLength="202.3477" x="48" y="417.3105">Add quoted string as single token</text><polygon fill="#F1F1F1" points="393.1172,327.2031,567.6992,327.2031,579.6992,339.2031,567.6992,351.2031,393.1172,351.2031,381.1172,339.2031,393.1172,327.2031" style="stroke:#181818;stroke-width:0.5;"/><text fill="#000000" font-family="sans-serif" font-size="11" lengthAdjust="spacing" textLength="174.582" x="393.1172" y="343.0112">Current char is operator | &lt; &gt; ?</text><text fill="#000000" font-family="sans-serif" font-size="11" lengthAdjust="spacing" textLength="19.0083" x="362.1089" y="336.6089">yes</text><text fill="#000000" font-family="sans-serif" font-size="11" lengthAdjust="spacing" textLength="13.7017" x="579.6992" y="336.6089">no</text><rect fill="#F1F1F1" height="33.9688" rx="12.5" ry="12.5" style="stroke:#181818;stroke-width:0.5;" width="154.0859" x="290.3477" y="361.2031"/><text fill="#000000" font-family="sans-serif" font-size="12" lengthAdjust="spacing" textLength="134.0859" x="300.3477" y="382.3418">Add operator as token</text><rect fill="#F1F1F1" height="33.9688" rx="12.5" ry="12.5" style="stroke:#181818;stroke-width:0.5;" width="257.9844" x="464.4336" y="361.2031"/><text fill="#000000" font-family="sans-serif" font-size="12" lengthAdjust="spacing" textLength="237.9844" x="474.4336" y="382.3418">Read word until whitespace or operator</text><rect fill="#F1F1F1" height="33.9688" rx="12.5" ry="12.5" style="stroke:#181818;stroke-width:0.5;" width="132.1836" x="527.334" y="430.1719"/><text fill="#000000" font-family="sans-serif" font-size="12" lengthAdjust="spacing" textLength="112.1836" x="537.334" y="451.3105">Add word as token</text><polygon fill="#F1F1F1" points="480.4082,470.1406,492.4082,482.1406,480.4082,494.1406,468.4082,482.1406,480.4082,470.1406" style="stroke:#181818;stroke-width:0.5;"/><polygon fill="#F1F1F1" points="314.791,500.1406,326.791,512.1406,314.791,524.1406,302.791,512.1406,314.791,500.1406" style="stroke:#181818;stroke-width:0.5;"/><polygon fill="#F1F1F1" points="270.1008,195.2344,359.4812,195.2344,371.4812,207.2344,359.4812,219.2344,270.1008,219.2344,258.1008,207.2344,270.1008,195.2344" style="stroke:#181818;stroke-width:0.5;"/><text fill="#000000" font-family="sans-serif" font-size="11" lengthAdjust="spacing" textLength="89.3804" x="270.1008" y="211.0425">Not end of input</text><rect fill="#F1F1F1" height="33.9688" rx="12.5" ry="12.5" style="stroke:#181818;stroke-width:0.5;" width="141.4414" x="244.0703" y="566.1406"/><text fill="#000000" font-family="sans-serif" font-size="12" lengthAdjust="spacing" textLength="121.4414" x="254.0703" y="587.2793">Return list of tokens</text><ellipse cx="314.791" cy="631.1094" fill="none" rx="11" ry="11" style="stroke:#222222;stroke-width:1;"/><ellipse cx="314.791" cy="631.1094" fill="#222222" rx="6" ry="6" style="stroke:#222222;stroke-width:1;"/><line style="stroke:#181818;stroke-width:1;" x1="314.791" x2="314.791" y1="67.2969" y2="87.2969"/><polygon fill="#181818" points="310.791,77.2969,314.791,87.2969,318.791,77.2969,314.791,81.2969" style="stroke:#181818;stroke-width:1;"/><line style="stroke:#181818;stroke-width:1;" x1="314.791" x2="314.791" y1="121.2656" y2="141.2656"/><polygon fill="#181818" points="310.791,131.2656,314.791,141.2656,318.791,131.2656,314.791,135.2656" style="stroke:#181818;stroke-width:1;"/><line style="stroke:#181818;stroke-width:1;" x1="149.1738" x2="149.1738" y1="361.1719" y2="396.1719"/><polygon fill="#181818" points="145.1738,386.1719,149.1738,396.1719,153.1738,386.1719,149.1738,390.1719" style="stroke:#181818;stroke-width:1;"/><line style="stroke:#181818;stroke-width:1;" x1="593.4258" x2="593.4258" y1="395.1719" y2="430.1719"/><polygon fill="#181818" points="589.4258,420.1719,593.4258,430.1719,597.4258,420.1719,593.4258,424.1719" style="stroke:#181818;stroke-width:1;"/><line style="stroke:#181818;stroke-width:1;" x1="381.1172" x2="367.3906" y1="339.2031" y2="339.2031"/><line style="stroke:#181818;stroke-width:1;" x1="367.3906" x2="367.3906" y1="339.2031" y2="361.2031"/><polygon fill="#181818" points="363.3906,351.2031,367.3906,361.2031,371.3906,351.2031,367.3906,355.2031" style="stroke:#181818;stroke-width:1;"/><line style="stroke:#181818;stroke-width:1;" x1="579.6992" x2="593.4258" y1="339.2031" y2="339.2031"/><line style="stroke:#181818;stroke-width:1;" x1="593.4258" x2="593.4258" y1="339.2031" y2="361.2031"/><polygon fill="#181818" points="589.4258,351.2031,593.4258,361.2031,597.4258,351.2031,593.4258,355.2031" style="stroke:#181818;stroke-width:1;"/><line style="stroke:#181818;stroke-width:1;" x1="367.3906" x2="367.3906" y1="395.1719" y2="482.1406"/><line style="stroke:#181818;stroke-width:1;" x1="367.3906" x2="468.4082" y1="482.1406" y2="482.1406"/><polygon fill="#181818" points="458.4082,478.1406,468.4082,482.1406,458.4082,486.1406,462.4082,482.1406" style="stroke:#181818;stroke-width:1;"/><line style="stroke:#181818;stroke-width:1;" x1="593.4258" x2="593.4258" y1="464.1406" y2="482.1406"/><line style="stroke:#181818;stroke-width:1;" x1="593.4258" x2="492.4082" y1="482.1406" y2="482.1406"/><polygon fill="#181818" points="502.4082,478.1406,492.4082,482.1406,502.4082,486.1406,498.4082,482.1406" style="stroke:#181818;stroke-width:1;"/><line style="stroke:#181818;stroke-width:1;" x1="241.335" x2="149.1738" y1="305.2031" y2="305.2031"/><line style="stroke:#181818;stroke-width:1;" x1="149.1738" x2="149.1738" y1="305.2031" y2="327.2031"/><polygon fill="#181818" points="145.1738,317.2031,149.1738,327.2031,153.1738,317.2031,149.1738,321.2031" style="stroke:#181818;stroke-width:1;"/><line style="stroke:#181818;stroke-width:1;" x1="388.2471" x2="480.4082" y1="305.2031" y2="305.2031"/><line style="stroke:#181818;stroke-width:1;" x1="480.4082" x2="480.4082" y1="305.2031" y2="327.2031"/><polygon fill="#181818" points="476.4082,317.2031,480.4082,327.2031,484.4082,317.2031,480.4082,321.2031" style="stroke:#181818;stroke-width:1;"/><line style="stroke:#181818;stroke-width:1;" x1="149.1738" x2="149.1738" y1="430.1406" y2="512.1406"/><line style="stroke:#181818;stroke-width:1;" x1="149.1738" x2="302.791" y1="512.1406" y2="512.1406"/><polygon fill="#181818" points="292.791,508.1406,302.791,512.1406,292.791,516.1406,296.791,512.1406" style="stroke:#181818;stroke-width:1;"/><line style="stroke:#181818;stroke-width:1;" x1="480.4082" x2="480.4082" y1="494.1406" y2="512.1406"/><line style="stroke:#181818;stroke-width:1;" x1="480.4082" x2="326.791" y1="512.1406" y2="512.1406"/><polygon fill="#181818" points="336.791,508.1406,326.791,512.1406,336.791,516.1406,332.791,512.1406" style="stroke:#181818;stroke-width:1;"/><line style="stroke:#181818;stroke-width:1;" x1="314.791" x2="314.791" y1="273.2031" y2="293.2031"/><polygon fill="#181818" points="310.791,283.2031,314.791,293.2031,318.791,283.2031,314.791,287.2031" style="stroke:#181818;stroke-width:1;"/><line style="stroke:#181818;stroke-width:1;" x1="314.791" x2="314.791" y1="219.2344" y2="239.2344"/><polygon fill="#181818" points="310.791,229.2344,314.791,239.2344,318.791,229.2344,314.791,233.2344" style="stroke:#181818;stroke-width:1;"/><line style="stroke:#181818;stroke-width:1;" x1="314.791" x2="314.791" y1="524.1406" y2="534.1406"/><line style="stroke:#181818;stroke-width:1;" x1="314.791" x2="736.418" y1="534.1406" y2="534.1406"/><polygon fill="#181818" points="732.418,372.1875,736.418,362.1875,740.418,372.1875,736.418,368.1875" style="stroke:#181818;stroke-width:1;"/><line style="stroke:#181818;stroke-width:1;" x1="736.418" x2="736.418" y1="207.2344" y2="534.1406"/><line style="stroke:#181818;stroke-width:1;" x1="736.418" x2="371.4812" y1="207.2344" y2="207.2344"/><polygon fill="#181818" points="381.4812,203.2344,371.4812,207.2344,381.4812,211.2344,377.4812,207.2344" style="stroke:#181818;stroke-width:1;"/><line style="stroke:#181818;stroke-width:1;" x1="258.1008" x2="24" y1="207.2344" y2="207.2344"/><polygon fill="#181818" points="20,358.1875,24,368.1875,28,358.1875,24,362.1875" style="stroke:#181818;stroke-width:1;"/><line style="stroke:#181818;stroke-width:1;" x1="24" x2="24" y1="207.2344" y2="546.1406"/><line style="stroke:#181818;stroke-width:1;" x1="24" x2="314.791" y1="546.1406" y2="546.1406"/><line style="stroke:#181818;stroke-width:1;" x1="314.791" x2="314.791" y1="546.1406" y2="566.1406"/><polygon fill="#181818" points="310.791,556.1406,314.791,566.1406,318.791,556.1406,314.791,560.1406" style="stroke:#181818;stroke-width:1;"/><line style="stroke:#181818;stroke-width:1;" x1="314.791" x2="314.791" y1="175.2344" y2="195.2344"/><polygon fill="#181818" points="310.791,185.2344,314.791,195.2344,318.791,185.2344,314.791,189.2344" style="stroke:#181818;stroke-width:1;"/><line style="stroke:#181818;stroke-width:1;" x1="314.791" x2="314.791" y1="600.1094" y2="620.1094"/><polygon fill="#181818" points="310.791,610.1094,314.791,620.1094,318.791,610.1094,314.791,614.1094" style="stroke:#181818;stroke-width:1;"/><!--SRC=[RL51JiCm4Bpx5NDC3tmWGQ0ABaZ0eRnWbMoQLLqxs9kM8XxFDcaR9EA3lLhDpinwLDGptYH8xjXxtE6LlwGcZtKWVygIKLY7qmhhMkKWUiApq3RHthcibDIL6wvP3en4HqZe1qNM965RkV8bY0fv-MPet760bwoLEtPYgiLxL71e4DjfRkLWf_pOIG-3AEUUQgx6hhGedeQKE2ZgZXBCsUSGbHzNqCwOYnFdYM0asJ0r68AAnvwqxipFXAzcpBfffbvpSGpAoFRwYzq9opwRsH1dzYKpiUT46XD-S8y7BDkwoTxGflX7QbbkNkWOqtMh-ODWD5U-wh_KEBCW4nfftLpPFSPopbE7D4LrZcQSovMb7VjV]--></g></svg>