<svg xmlns="http://www.w3.org/2000/svg" xmlns:xlink="http://www.w3.org/1999/xlink" contentStyleType="text/css" data-diagram-type="DESCRIPTION" height="836px" preserveAspectRatio="none" style="width:1023px;height:836px;background:#FFFFFF;" version="1.1" viewBox="0 0 1023 836" width="1023px" zoomAndPan="magnify"><title>Minishell - Simplified Parsing Flow</title><defs/><g><g class="title" data-source-line="23"><text fill="#000000" font-family="Arial" font-size="14" font-weight="bold" lengthAdjust="spacing" textLength="272.3369" x="368.3315" y="22.9951">Minishell - Simplified Parsing Flow</text></g><!--cluster Input Stage--><g class="cluster" data-entity="Input Stage" data-source-line="27" data-uid="ent0002" id="cluster_Input Stage"><path d="M241.5,43.2969 L334.9697,43.2969 A3.75,3.75 0 0 1 337.4697,45.7969 L344.4697,65.5938 L626.5,65.5938 A2.5,2.5 0 0 1 629,68.0938 L629,281.4069 A2.5,2.5 0 0 1 626.5,283.9069 L241.5,283.9069 A2.5,2.5 0 0 1 239,281.4069 L239,45.7969 A2.5,2.5 0 0 1 241.5,43.2969" fill="#FFFFE0" style="stroke:#FFA500;stroke-width:1.5;"/><line style="stroke:#FFA500;stroke-width:1.5;" x1="239" x2="344.4697" y1="65.5938" y2="65.5938"/><text fill="#000000" font-family="Arial" font-size="14" font-weight="bold" lengthAdjust="spacing" textLength="92.4697" x="243" y="58.292">Input Stage</text></g><!--cluster Tokenization Stage--><g class="cluster" data-entity="Tokenization Stage" data-source-line="33" data-uid="ent0008" id="cluster_Tokenization Stage"><path d="M457.5,329.9069 L610.5244,329.9069 A3.75,3.75 0 0 1 613.0244,332.4069 L620.0244,352.2038 L1013.5,352.2038 A2.5,2.5 0 0 1 1016,354.7038 L1016,426.8169 A2.5,2.5 0 0 1 1013.5,429.3169 L457.5,429.3169 A2.5,2.5 0 0 1 455,426.8169 L455,332.4069 A2.5,2.5 0 0 1 457.5,329.9069" fill="#FFFFE0" style="stroke:#FFA500;stroke-width:1.5;"/><line style="stroke:#FFA500;stroke-width:1.5;" x1="455" x2="620.0244" y1="352.2038" y2="352.2038"/><text fill="#000000" font-family="Arial" font-size="14" font-weight="bold" lengthAdjust="spacing" textLength="152.0244" x="459" y="344.902">Tokenization Stage</text></g><!--cluster Syntactic Analysis Stage--><g class="cluster" data-entity="Syntactic Analysis Stage" data-source-line="42" data-uid="ent0013" id="cluster_Syntactic Analysis Stage"><path d="M314.5,475.3169 L510.0303,475.3169 A3.75,3.75 0 0 1 512.5303,477.8169 L519.5303,497.6138 L882.5,497.6138 A2.5,2.5 0 0 1 885,500.1138 L885,585.0369 A2.5,2.5 0 0 1 882.5,587.5369 L314.5,587.5369 A2.5,2.5 0 0 1 312,585.0369 L312,477.8169 A2.5,2.5 0 0 1 314.5,475.3169" fill="#FFFFE0" style="stroke:#FFA500;stroke-width:1.5;"/><line style="stroke:#FFA500;stroke-width:1.5;" x1="312" x2="519.5303" y1="497.6138" y2="497.6138"/><text fill="#000000" font-family="Arial" font-size="14" font-weight="bold" lengthAdjust="spacing" textLength="194.5303" x="316" y="490.312">Syntactic Analysis Stage</text></g><!--cluster Supporting Data--><g class="cluster" data-entity="Supporting Data" data-source-line="52" data-uid="ent0018" id="cluster_Supporting Data"><path d="M8.5,332.7069 L139.6768,332.7069 A3.75,3.75 0 0 1 142.1768,335.2069 L149.1768,355.0038 L269.5,355.0038 A2.5,2.5 0 0 1 272,357.5038 L272,565.8269 A2.5,2.5 0 0 1 269.5,568.3269 L8.5,568.3269 A2.5,2.5 0 0 1 6,565.8269 L6,335.2069 A2.5,2.5 0 0 1 8.5,332.7069" fill="#FFFFE0" style="stroke:#FFA500;stroke-width:1.5;"/><line style="stroke:#FFA500;stroke-width:1.5;" x1="6" x2="149.1768" y1="355.0038" y2="355.0038"/><text fill="#000000" font-family="Arial" font-size="14" font-weight="bold" lengthAdjust="spacing" textLength="130.1768" x="10" y="347.702">Supporting Data</text></g><!--cluster Output of Parsing--><g class="cluster" data-entity="Output of Parsing" data-source-line="57" data-uid="ent0023" id="cluster_Output of Parsing"><path d="M112.5,633.5369 L253.9307,633.5369 A3.75,3.75 0 0 1 256.4307,636.0369 L263.4307,655.8338 L511.5,655.8338 A2.5,2.5 0 0 1 514,658.3338 L514,724.8469 A2.5,2.5 0 0 1 511.5,727.3469 L112.5,727.3469 A2.5,2.5 0 0 1 110,724.8469 L110,636.0369 A2.5,2.5 0 0 1 112.5,633.5369" fill="#FFFFE0" style="stroke:#FFA500;stroke-width:1.5;"/><line style="stroke:#FFA500;stroke-width:1.5;" x1="110" x2="263.4307" y1="655.8338" y2="655.8338"/><text fill="#000000" font-family="Arial" font-size="14" font-weight="bold" lengthAdjust="spacing" textLength="140.4307" x="114" y="648.532">Output of Parsing</text></g><!--entity User--><g class="entity" data-entity="User" data-source-line="28" data-uid="ent0003" id="entity_User"><ellipse cx="518" cy="86.7969" fill="#F1F1F1" rx="8" ry="8" style="stroke:#181818;stroke-width:0.5;"/><path d="M518,94.7969 L518,121.7969 M505,102.7969 L531,102.7969 M518,121.7969 L505,136.7969 M518,121.7969 L531,136.7969" fill="none" style="stroke:#181818;stroke-width:0.5;"/><text fill="#000000" font-family="Arial" font-size="11" lengthAdjust="spacing" textLength="25.0723" x="505.4639" y="148.5073">User</text></g><!--entity InputReader--><g class="entity" data-entity="InputReader" data-source-line="29" data-uid="ent0004" id="entity_InputReader"><rect fill="#ADD8E6" height="42.8047" rx="2.5" ry="2.5" style="stroke:#00008B;stroke-width:0.5;" width="111.4033" x="501.3" y="225.0969"/><rect fill="#ADD8E6" height="10" style="stroke:#00008B;stroke-width:0.5;" width="15" x="592.7033" y="230.0969"/><rect fill="#ADD8E6" height="2" style="stroke:#00008B;stroke-width:0.5;" width="4" x="590.7033" y="232.0969"/><rect fill="#ADD8E6" height="2" style="stroke:#00008B;stroke-width:0.5;" width="4" x="590.7033" y="236.0969"/><text fill="#000000" font-family="Arial" font-size="11" lengthAdjust="spacing" textLength="71.4033" x="516.3" y="255.3073">Input Reader</text></g><g class="entity" data-entity="GMN5" data-source-line="30" data-uid="ent0006" id="entity_GMN5"><path d="M255.36,235.0969 L255.36,257.9016 A0,0 0 0 0 255.36,257.9016 L466.6471,257.9016 A0,0 0 0 0 466.6471,257.9016 L466.6471,253.0969 L501.13,246.5069 L466.6471,245.0969 L466.6471,245.0969 L456.6471,235.0969 L255.36,235.0969 A0,0 0 0 0 255.36,235.0969" fill="#FFFACD" style="stroke:#808080;stroke-width:0.5;"/><path d="M456.6471,235.0969 L456.6471,245.0969 L466.6471,245.0969 L456.6471,235.0969" fill="#FFFACD" style="stroke:#808080;stroke-width:0.5;"/><text fill="#000000" font-family="Arial" font-size="11" lengthAdjust="spacing" textLength="190.2871" x="261.36" y="250.3073">Captures raw command line string</text></g><!--entity Lexer--><g class="entity" data-entity="Lexer" data-source-line="34" data-uid="ent0009" id="entity_Lexer"><rect fill="#ADD8E6" height="42.8047" rx="2.5" ry="2.5" style="stroke:#00008B;stroke-width:0.5;" width="172.4458" x="470.78" y="367.7069"/><rect fill="#ADD8E6" height="10" style="stroke:#00008B;stroke-width:0.5;" width="15" x="623.2258" y="372.7069"/><rect fill="#ADD8E6" height="2" style="stroke:#00008B;stroke-width:0.5;" width="4" x="621.2258" y="374.7069"/><rect fill="#ADD8E6" height="2" style="stroke:#00008B;stroke-width:0.5;" width="4" x="621.2258" y="378.7069"/><text fill="#000000" font-family="Arial" font-size="11" lengthAdjust="spacing" textLength="132.4458" x="485.78" y="397.9173">Lexical Analyzer (Lexer)</text></g><g class="entity" data-entity="GMN10" data-source-line="36" data-uid="ent0011" id="entity_GMN10"><path d="M678.36,364.9069 L678.36,385.1069 L643.47,389.1069 L678.36,393.1069 L678.36,413.3209 A0,0 0 0 0 678.36,413.3209 L999.631,413.3209 A0,0 0 0 0 999.631,413.3209 L999.631,374.9069 L989.631,364.9069 L678.36,364.9069 A0,0 0 0 0 678.36,364.9069" fill="#FFFACD" style="stroke:#808080;stroke-width:0.5;"/><path d="M989.631,364.9069 L989.631,374.9069 L999.631,374.9069 L989.631,364.9069" fill="#FFFACD" style="stroke:#808080;stroke-width:0.5;"/><text fill="#000000" font-family="Arial" font-size="11" lengthAdjust="spacing" textLength="210.4932" x="684.36" y="380.1173">- Converts raw string to token stream.</text><text fill="#000000" font-family="Arial" font-size="11" lengthAdjust="spacing" textLength="300.271" x="684.36" y="392.922">- Handles quotes and special characters (|, &lt;, &gt;, etc.).</text><text fill="#000000" font-family="Arial" font-size="11" lengthAdjust="spacing" textLength="218.7539" x="684.36" y="405.7267">- Manages heredoc token identification.</text></g><!--entity Parser--><g class="entity" data-entity="Parser" data-source-line="43" data-uid="ent0014" id="entity_Parser"><rect fill="#ADD8E6" height="42.8047" rx="2.5" ry="2.5" style="stroke:#00008B;stroke-width:0.5;" width="176.3882" x="327.81" y="519.5269"/><rect fill="#ADD8E6" height="10" style="stroke:#00008B;stroke-width:0.5;" width="15" x="484.1982" y="524.5269"/><rect fill="#ADD8E6" height="2" style="stroke:#00008B;stroke-width:0.5;" width="4" x="482.1982" y="526.5269"/><rect fill="#ADD8E6" height="2" style="stroke:#00008B;stroke-width:0.5;" width="4" x="482.1982" y="530.5269"/><text fill="#000000" font-family="Arial" font-size="11" lengthAdjust="spacing" textLength="136.3882" x="342.81" y="549.7373">Syntax Analyzer (Parser)</text></g><g class="entity" data-entity="GMN15" data-source-line="45" data-uid="ent0016" id="entity_GMN15"><path d="M538.98,510.3169 L538.98,536.9269 L504.59,540.9269 L538.98,544.9269 L538.98,571.5356 A0,0 0 0 0 538.98,571.5356 L869.022,571.5356 A0,0 0 0 0 869.022,571.5356 L869.022,520.3169 L859.022,510.3169 L538.98,510.3169 A0,0 0 0 0 538.98,510.3169" fill="#FFFACD" style="stroke:#808080;stroke-width:0.5;"/><path d="M859.022,510.3169 L859.022,520.3169 L869.022,520.3169 L859.022,510.3169" fill="#FFFACD" style="stroke:#808080;stroke-width:0.5;"/><text fill="#000000" font-family="Arial" font-size="11" lengthAdjust="spacing" textLength="120.2266" x="544.98" y="525.5273">- Takes token stream.</text><text fill="#000000" font-family="Arial" font-size="11" lengthAdjust="spacing" textLength="160.5474" x="544.98" y="538.332">- Validates command syntax.</text><text fill="#000000" font-family="Arial" font-size="11" lengthAdjust="spacing" textLength="263.769" x="544.98" y="551.1367">- Performs variable expansion (using Env Data).</text><text fill="#000000" font-family="Arial" font-size="11" lengthAdjust="spacing" textLength="309.042" x="544.98" y="563.9414">- Builds structured command representation (e.g., AST).</text></g><!--entity EnvData--><g class="entity" data-entity="EnvData" data-source-line="53" data-uid="ent0019" id="entity_EnvData"><rect fill="#ADD8E6" height="42.8047" rx="2.5" ry="2.5" style="stroke:#00008B;stroke-width:0.5;" width="140.2407" x="109.88" y="367.7069"/><rect fill="#ADD8E6" height="10" style="stroke:#00008B;stroke-width:0.5;" width="15" x="230.1207" y="372.7069"/><rect fill="#ADD8E6" height="2" style="stroke:#00008B;stroke-width:0.5;" width="4" x="228.1207" y="374.7069"/><rect fill="#ADD8E6" height="2" style="stroke:#00008B;stroke-width:0.5;" width="4" x="228.1207" y="378.7069"/><text fill="#000000" font-family="Arial" font-size="11" lengthAdjust="spacing" textLength="100.2407" x="124.88" y="397.9173">Environment Data</text></g><g class="entity" data-entity="GMN20" data-source-line="54" data-uid="ent0021" id="entity_GMN20"><path d="M22.17,529.5269 L22.17,552.3316 L255.8277,552.3316 L255.8277,539.5269 L245.8277,529.5269 L22.17,529.5269" fill="#FFFACD" style="stroke:#808080;stroke-width:0.5;"/><path d="M245.8277,529.5269 L245.8277,539.5269 L255.8277,539.5269 L245.8277,529.5269" fill="#FFFACD" style="stroke:#808080;stroke-width:1;"/><text fill="#000000" font-family="Arial" font-size="11" lengthAdjust="spacing" textLength="212.6577" x="28.17" y="544.7373">Provides variable values for expansion</text></g><!--entity StructuredCommands--><g class="entity" data-entity="StructuredCommands" data-source-line="58" data-uid="ent0024" id="entity_StructuredCommands"><rect fill="#ADD8E6" height="42.8047" rx="2.5" ry="2.5" style="stroke:#00008B;stroke-width:0.5;" width="164.1582" x="333.92" y="668.5369"/><rect fill="#ADD8E6" height="10" style="stroke:#00008B;stroke-width:0.5;" width="15" x="478.0782" y="673.5369"/><rect fill="#ADD8E6" height="2" style="stroke:#00008B;stroke-width:0.5;" width="4" x="476.0782" y="675.5369"/><rect fill="#ADD8E6" height="2" style="stroke:#00008B;stroke-width:0.5;" width="4" x="476.0782" y="679.5369"/><text fill="#000000" font-family="Arial" font-size="11" lengthAdjust="spacing" textLength="124.1582" x="348.92" y="698.7473">Structured Commands</text></g><g class="entity" data-entity="GMN25" data-source-line="59" data-uid="ent0026" id="entity_GMN25"><path d="M125.54,678.5369 L125.54,701.3416 A0,0 0 0 0 125.54,701.3416 L298.4506,701.3416 A0,0 0 0 0 298.4506,701.3416 L298.4506,696.5369 L333.64,689.9369 L298.4506,688.5369 L298.4506,688.5369 L288.4506,678.5369 L125.54,678.5369 A0,0 0 0 0 125.54,678.5369" fill="#FFFACD" style="stroke:#808080;stroke-width:0.5;"/><path d="M288.4506,678.5369 L288.4506,688.5369 L298.4506,688.5369 L288.4506,678.5369" fill="#FFFACD" style="stroke:#808080;stroke-width:0.5;"/><text fill="#000000" font-family="Arial" font-size="11" lengthAdjust="spacing" textLength="151.9106" x="131.54" y="693.7473">Ready for execution engine</text></g><!--entity Execution Engine--><g class="entity" data-entity="Execution Engine" data-source-line="74" data-uid="ent0034" id="entity_Execution Engine"><rect fill="#ADD8E6" height="42.8047" rx="2.5" ry="2.5" style="stroke:#00008B;stroke-width:0.5;" width="135.5142" x="348.24" y="787.3469"/><rect fill="#ADD8E6" height="10" style="stroke:#00008B;stroke-width:0.5;" width="15" x="463.7542" y="792.3469"/><rect fill="#ADD8E6" height="2" style="stroke:#00008B;stroke-width:0.5;" width="4" x="461.7542" y="794.3469"/><rect fill="#ADD8E6" height="2" style="stroke:#00008B;stroke-width:0.5;" width="4" x="461.7542" y="798.3469"/><text fill="#000000" font-family="Arial" font-size="11" lengthAdjust="spacing" textLength="95.5142" x="363.24" y="817.5573">Execution Engine</text></g><!--link EnvData to GMN20--><g class="link" data-entity-1="EnvData" data-entity-2="GMN20" data-source-line="54" data-uid="lnk22" id="link_EnvData_GMN20"><path d="M162.79,410.7769 C155.63,420.6169 148.05,432.9169 144,445.3169 C134.51,474.4069 136.17,511.1669 137.79,529.0969" fill="none" id="EnvData-GMN20" style="stroke:#181818;stroke-width:1;stroke-dasharray:7.0,7.0;"/></g><!--link User to InputReader--><g class="link" data-entity-1="User" data-entity-2="InputReader" data-source-line="64" data-uid="lnk28" id="link_User_InputReader"><path d="M528.76,151.5069 C535.84,175.0769 543.1351,199.3402 549.0451,219.0302" fill="none" id="User-to-InputReader" style="stroke:#181818;stroke-width:1;"/><polygon fill="#181818" points="550.77,224.7769,552.0138,215.0069,549.3326,219.9879,544.3515,217.3067,550.77,224.7769" style="stroke:#181818;stroke-width:1;"/><text fill="#000000" font-family="Arial" font-size="11" lengthAdjust="spacing" textLength="93.6558" x="541" y="192.3073">Enters command</text></g><!--link InputReader to Lexer--><g class="link" data-entity-1="InputReader" data-entity-2="Lexer" data-source-line="65" data-uid="lnk29" id="link_InputReader_Lexer"><path d="M557,268.2469 C557,294.8369 557,334.6569 557,361.2769" fill="none" id="InputReader-to-Lexer" style="stroke:#181818;stroke-width:1;"/><polygon fill="#181818" points="557,367.2769,561,358.2769,557,362.2769,553,358.2769,557,367.2769" style="stroke:#181818;stroke-width:1;"/><text fill="#000000" font-family="Arial" font-size="11" lengthAdjust="spacing" textLength="119.7378" x="558" y="311.1173">Raw Command String</text></g><!--link Lexer to Parser--><g class="link" data-entity-1="Lexer" data-entity-2="Parser" data-source-line="67" data-uid="lnk30" id="link_Lexer_Parser"><path d="M547.96,410.8269 C541.04,425.3269 530.55,444.6469 518,459.3169 C497.9,482.8169 475.0369,500.837 453.5369,515.687" fill="none" id="Lexer-to-Parser" style="stroke:#181818;stroke-width:1;"/><polygon fill="#181818" points="448.6,519.0969,458.2786,517.2733,452.7141,516.2553,453.732,510.6908,448.6,519.0969" style="stroke:#181818;stroke-width:1;"/><text fill="#000000" font-family="Arial" font-size="11" lengthAdjust="spacing" textLength="77.0967" x="529" y="456.5273">Token Stream</text></g><!--link Parser to EnvData--><g class="link" data-entity-1="Parser" data-entity-2="EnvData" data-source-line="69" data-uid="lnk31" id="link_Parser_EnvData"><path d="M383.73,519.1069 C355.47,502.0169 312.68,478.8169 272,467.3169 C251.61,461.5569 191.34,474.9169 177,459.3169 C165.28,446.5669 166.0486,432.038 170.4086,416.708" fill="none" id="Parser-to-EnvData" style="stroke:#181818;stroke-width:1;"/><polygon fill="#181818" points="172.05,410.9369,165.7405,418.4993,170.6822,415.7461,173.4354,420.6878,172.05,410.9369" style="stroke:#181818;stroke-width:1;"/><text fill="#000000" font-family="Arial" font-size="11" lengthAdjust="spacing" textLength="194.9707" x="178" y="456.5273">Requests Var Value (if $VAR found)</text></g><!--link EnvData to Parser--><g class="link" data-entity-1="EnvData" data-entity-2="Parser" data-source-line="70" data-uid="lnk32" id="link_EnvData_Parser"><path d="M250.16,394.6369 C291.45,400.6769 342.22,414.4069 377,445.3169 C398.65,464.5569 407.3559,491.7649 411.6859,513.2749" fill="none" id="EnvData-to-Parser" style="stroke:#181818;stroke-width:1;"/><polygon fill="#181818" points="412.87,519.1569,415.0153,509.5445,411.8833,514.2552,407.1726,511.1232,412.87,519.1569" style="stroke:#181818;stroke-width:1;"/><text fill="#000000" font-family="Arial" font-size="11" lengthAdjust="spacing" textLength="99.7627" x="390" y="456.5273">Returns Var Value</text></g><!--link Parser to StructuredCommands--><g class="link" data-entity-1="Parser" data-entity-2="StructuredCommands" data-source-line="72" data-uid="lnk33" id="link_Parser_StructuredCommands"><path d="M416,562.6769 C416,590.6969 416,634.3269 416,662.2969" fill="none" id="Parser-to-StructuredCommands" style="stroke:#181818;stroke-width:1;"/><polygon fill="#181818" points="416,668.2969,420,659.2969,416,663.2969,412,659.2969,416,668.2969" style="stroke:#181818;stroke-width:1;"/><text fill="#000000" font-family="Arial" font-size="11" lengthAdjust="spacing" textLength="33.3438" x="417" y="614.7473">Builds</text></g><!--link StructuredCommands to Execution Engine--><g class="link" data-entity-1="StructuredCommands" data-entity-2="Execution Engine" data-source-line="74" data-uid="lnk35" id="link_StructuredCommands_Execution Engine"><path d="M416,711.8269 C416,733.0869 416,759.8469 416,781.0469" fill="none" id="StructuredCommands-to-Execution Engine" style="stroke:#181818;stroke-width:1;"/><polygon fill="#181818" points="416,787.0469,420,778.0469,416,782.0469,412,778.0469,416,787.0469" style="stroke:#181818;stroke-width:1;"/><text fill="#000000" font-family="Arial" font-size="11" lengthAdjust="spacing" textLength="78.0474" x="417" y="754.5573">To Next Stage</text></g><!--SRC=[VLHTRnen47o_Nx55bGeI84NgKrH58fIqbV8bI5DLKHusTmjOtDaNsqSWRVzxT-qZ7844yM1xvtPdnhl-K5gS5GYvqkJN9O6nVcwIn2sKBj5Y0G-OBcRML3eRcjnO-3LNdXhnZAPOvVxCQ7-91S70AimFnoVgcU3eg9czvEmu8_YJ0FzENzKwLxEv_qrvRfvYtDYCR8nTMTGp2iVRt9-JVytigIbAeqdxz_AVvXNjPV-ATX42E_cqyMzIfSBeuLnDfqRlPVjcSIsPlF8vmONIoirP5VHWeeeoLrD56LoZTKhFu4pK9f-Wr-l1q5Y2YMU7dEoJPEDNwuSkAnz3hPeIffvh_NHamtOh_Yw2nuJCw1xGGJY8-u0DmdAQUZ3JPX2EOOYbhopNj_WaEGlKMMWNSDuoNz7rmkh6B4YhP_JAw5ro3JRdj58fvZ3GcA-VkKYRJyXs0hEmt7AoSaD2QdikFt56BydwI2io0M_upmHaJrZq6_3lp3fd4OyLPtKW6bn9ARSgf7E-szIJTT3-suKlNJZf0lcqtsack40TRc5EbZAJreLKnehu-jAWEEA9Smlt7MCcQ-svY4gZQgVSc_O4wAhXZZJ6nfwuFk1F8n09t-22wRxbnotcAaEnOdEbBfHjOgx9Jeqj72oHP_g1EvTM9MedTzkkGg-Ez997nUEELQULoZCdHQjKMYTxgM6fv4vYbR51sjIVzRimcDnqthEkAaj-bQISb3hW6BDGrkX2DW89Jl6XhBTMFHZlJI5UrQ5ZkBPcoLVOKBX47de7h7ihTeVDLULbbch7cTIX6zmg7qRbBb3Qdc-EzuTl7yCpACEuhabHMWNpICzu28LRV2eQBucy8F6vaCU0LoUlPherqg7Vwtjf9SsmmCEq2N3CqrKJ4MgYDqbYL72nwmGO9byWt6WCgGCCgSqEoUYHpUMPlKKh7LWHjDKKFjuEnYoEdz9EAzd0TxEFYItHZGyR9HXuqBHMx4D67WZBLtUZ5pD7mSpxA0GkQRLvMly3]--></g></svg>