<svg xmlns="http://www.w3.org/2000/svg" xmlns:xlink="http://www.w3.org/1999/xlink" contentStyleType="text/css" data-diagram-type="DESCRIPTION" height="357px" preserveAspectRatio="none" style="width:903px;height:357px;background:#FFFFFF;" version="1.1" viewBox="0 0 903 357" width="903px" zoomAndPan="magnify"><title>Minishell - General System Architecture</title><defs/><g><g class="title" data-source-line="10"><text fill="#000000" font-family="Arial" font-size="14" font-weight="bold" lengthAdjust="spacing" textLength="314.46" x="287.3013" y="22.9951">Minishell - General System Architecture</text></g><!--entity User--><g class="entity" data-entity="User" data-source-line="12" data-uid="ent0002" id="entity_User"><ellipse cx="19" cy="51.2969" fill="#F1F1F1" rx="8" ry="8" style="stroke:#181818;stroke-width:0.5;"/><path d="M19,59.2969 L19,86.2969 M6,67.2969 L32,67.2969 M19,86.2969 L6,101.2969 M19,86.2969 L32,101.2969" fill="none" style="stroke:#181818;stroke-width:0.5;"/><text fill="#000000" font-family="Arial" font-size="11" lengthAdjust="spacing" textLength="25.0723" x="6.4639" y="113.0073">User</text></g><!--entity REPL--><g class="entity" data-entity="REPL" data-source-line="13" data-uid="ent0003" id="entity_REPL"><rect fill="#ADD8E6" height="43.9688" rx="2.5" ry="2.5" style="stroke:#00008B;stroke-width:0.5;" width="144.4668" x="154.77" y="57.2169"/><rect fill="#ADD8E6" height="10" style="stroke:#00008B;stroke-width:0.5;" width="15" x="279.2368" y="62.2169"/><rect fill="#ADD8E6" height="2" style="stroke:#00008B;stroke-width:0.5;" width="4" x="277.2368" y="64.2169"/><rect fill="#ADD8E6" height="2" style="stroke:#00008B;stroke-width:0.5;" width="4" x="277.2368" y="68.2169"/><text fill="#000000" font-family="Arial" font-size="12" lengthAdjust="spacing" textLength="104.4668" x="169.77" y="88.3555">REPL (Main Loop)</text></g><!--entity Lexer--><g class="entity" data-entity="Lexer" data-source-line="14" data-uid="ent0004" id="entity_Lexer"><rect fill="#ADD8E6" height="43.9688" rx="2.5" ry="2.5" style="stroke:#00008B;stroke-width:0.5;" width="184.4863" x="425.76" y="57.2169"/><rect fill="#ADD8E6" height="10" style="stroke:#00008B;stroke-width:0.5;" width="15" x="590.2463" y="62.2169"/><rect fill="#ADD8E6" height="2" style="stroke:#00008B;stroke-width:0.5;" width="4" x="588.2463" y="64.2169"/><rect fill="#ADD8E6" height="2" style="stroke:#00008B;stroke-width:0.5;" width="4" x="588.2463" y="68.2169"/><text fill="#000000" font-family="Arial" font-size="12" lengthAdjust="spacing" textLength="144.4863" x="440.76" y="88.3555">Lexical Analyzer (Lexer)</text></g><!--entity Parser--><g class="entity" data-entity="Parser" data-source-line="15" data-uid="ent0005" id="entity_Parser"><rect fill="#ADD8E6" height="43.9688" rx="2.5" ry="2.5" style="stroke:#00008B;stroke-width:0.5;" width="78.0918" x="721.95" y="57.2169"/><rect fill="#ADD8E6" height="10" style="stroke:#00008B;stroke-width:0.5;" width="15" x="780.0418" y="62.2169"/><rect fill="#ADD8E6" height="2" style="stroke:#00008B;stroke-width:0.5;" width="4" x="778.0418" y="64.2169"/><rect fill="#ADD8E6" height="2" style="stroke:#00008B;stroke-width:0.5;" width="4" x="778.0418" y="68.2169"/><text fill="#000000" font-family="Arial" font-size="12" lengthAdjust="spacing" textLength="38.0918" x="736.95" y="88.3555">Parser</text></g><!--entity Expander--><g class="entity" data-entity="Expander" data-source-line="16" data-uid="ent0006" id="entity_Expander"><rect fill="#ADD8E6" height="43.9688" rx="2.5" ry="2.5" style="stroke:#00008B;stroke-width:0.5;" width="149.2422" x="518.38" y="233.5969"/><rect fill="#ADD8E6" height="10" style="stroke:#00008B;stroke-width:0.5;" width="15" x="647.6222" y="238.5969"/><rect fill="#ADD8E6" height="2" style="stroke:#00008B;stroke-width:0.5;" width="4" x="645.6222" y="240.5969"/><rect fill="#ADD8E6" height="2" style="stroke:#00008B;stroke-width:0.5;" width="4" x="645.6222" y="244.5969"/><text fill="#000000" font-family="Arial" font-size="12" lengthAdjust="spacing" textLength="109.2422" x="533.38" y="264.7355">Expansion Module</text></g><!--entity Executor--><g class="entity" data-entity="Executor" data-source-line="17" data-uid="ent0007" id="entity_Executor"><rect fill="#ADD8E6" height="43.9688" rx="2.5" ry="2.5" style="stroke:#00008B;stroke-width:0.5;" width="144.1973" x="406.9" y="307.5669"/><rect fill="#ADD8E6" height="10" style="stroke:#00008B;stroke-width:0.5;" width="15" x="531.0973" y="312.5669"/><rect fill="#ADD8E6" height="2" style="stroke:#00008B;stroke-width:0.5;" width="4" x="529.0973" y="314.5669"/><rect fill="#ADD8E6" height="2" style="stroke:#00008B;stroke-width:0.5;" width="4" x="529.0973" y="318.5669"/><text fill="#000000" font-family="Arial" font-size="12" lengthAdjust="spacing" textLength="104.1973" x="421.9" y="338.7055">Execution Engine</text></g><!--link User to REPL--><g class="link" data-entity-1="User" data-entity-2="REPL" data-source-line="19" data-uid="lnk8" id="link_User_REPL"><path d="M32.97,79.1969 C57.56,79.1969 104.18,79.1969 148.42,79.1969" fill="none" id="User-to-REPL" style="stroke:#181818;stroke-width:1;"/><polygon fill="#181818" points="154.42,79.1969,145.42,75.1969,149.42,79.1969,145.42,83.1969,154.42,79.1969" style="stroke:#181818;stroke-width:1;"/><text fill="#000000" font-family="Arial" font-size="11" lengthAdjust="spacing" textLength="86.8828" x="50.63" y="73.4073">Input command</text></g><!--link REPL to User--><g class="link" data-entity-1="REPL" data-entity-2="User" data-source-line="25" data-uid="lnk14" id="link_REPL_User"><path d="M154.62,95.6469 C125.84,99.8669 92.52,101.8169 62.63,96.1969 C52.25,94.2469 46.6242,92.3653 38.2242,88.5553" fill="none" id="REPL-to-User" style="stroke:#181818;stroke-width:1;"/><polygon fill="#181818" points="32.76,86.0769,39.304,93.4373,37.3135,88.1422,42.6086,86.1517,32.76,86.0769" style="stroke:#181818;stroke-width:1;"/><text fill="#000000" font-family="Arial" font-size="11" lengthAdjust="spacing" textLength="60.355" x="63.63" y="93.4073">Print result</text></g><!--link REPL to Lexer--><g class="link" data-entity-1="REPL" data-entity-2="Lexer" data-source-line="20" data-uid="lnk9" id="link_REPL_Lexer"><path d="M299.68,79.1969 C337.73,79.1969 378.72,79.1969 419.35,79.1969" fill="none" id="REPL-to-Lexer" style="stroke:#181818;stroke-width:1;"/><polygon fill="#181818" points="425.35,79.1969,416.35,75.1969,420.35,79.1969,416.35,83.1969,425.35,79.1969" style="stroke:#181818;stroke-width:1;"/><text fill="#000000" font-family="Arial" font-size="11" lengthAdjust="spacing" textLength="90.2451" x="317.5" y="73.4073">Raw input string</text></g><!--link Lexer to Parser--><g class="link" data-entity-1="Lexer" data-entity-2="Parser" data-source-line="21" data-uid="lnk10" id="link_Lexer_Parser"><path d="M610.56,79.1969 C649.05,79.1969 685.66,79.1969 715.68,79.1969" fill="none" id="Lexer-to-Parser" style="stroke:#181818;stroke-width:1;"/><polygon fill="#181818" points="721.68,79.1969,712.68,75.1969,716.68,79.1969,712.68,83.1969,721.68,79.1969" style="stroke:#181818;stroke-width:1;"/><text fill="#000000" font-family="Arial" font-size="11" lengthAdjust="spacing" textLength="75.8452" x="628.6" y="73.4073">Token stream</text></g><!--link Parser to Expander--><g class="link" data-entity-1="Parser" data-entity-2="Expander" data-source-line="22" data-uid="lnk11" id="link_Parser_Expander"><path d="M740.4,101.5769 C708.07,135.1369 649.9426,195.4756 617.6726,228.9756" fill="none" id="Parser-to-Expander" style="stroke:#181818;stroke-width:1;"/><polygon fill="#181818" points="613.51,233.2969,622.6347,229.5901,616.9788,229.6959,616.873,224.04,613.51,233.2969" style="stroke:#181818;stroke-width:1;"/><text fill="#000000" font-family="Arial" font-size="11" lengthAdjust="spacing" textLength="200.0625" x="695" y="156.8073">Command structure (AST/linked list)</text></g><!--link Executor to REPL--><g class="link" data-entity-1="Executor" data-entity-2="REPL" data-source-line="23" data-uid="lnk12" id="link_Executor_REPL"><path d="M457.21,307.0769 C409.44,259.9969 300.2531,152.3888 252.7631,105.5788" fill="none" id="Executor-to-REPL" style="stroke:#181818;stroke-width:1;"/><polygon fill="#181818" points="248.49,101.3669,252.0917,110.5335,252.0509,104.8768,257.7076,104.836,248.49,101.3669" style="stroke:#181818;stroke-width:1;"/><text fill="#000000" font-family="Arial" font-size="11" lengthAdjust="spacing" textLength="73.2778" x="350" y="200.8073">Output/result</text></g><!--link Expander to Executor--><g class="link" data-entity-1="Expander" data-entity-2="Executor" data-source-line="24" data-uid="lnk13" id="link_Expander_Executor"><path d="M559.1,277.9869 C544.53,287.1769 532.6127,294.7025 518.0327,303.9125" fill="none" id="Expander-to-Executor" style="stroke:#181818;stroke-width:1;"/><polygon fill="#181818" points="512.96,307.1169,522.7053,305.6921,517.1872,304.4466,518.4328,298.9286,512.96,307.1169" style="stroke:#181818;stroke-width:1;"/></g><!--SRC=[RP9BRy8m48Jl_XKhJd10Y1uvL09AgqgXHJpKivjimOgpZlnGWQh_lHkRG8IQapNpPNRMiYiLrTBA2ZvbNkwj2LJCZJOMFWxAet1Nly0l6RH_DkJVP8KmjKhg__sDEYECnnqpDrLj2Cd3Zm3-PdV3ChK_-9aEc5nZ2xJ9UPAsl1gty0VnAuHNNYCi5IbtGArX22z8QAM6pSbvhBXZtcoH-s1H29bx3jmvjEBMfxTUh3BeBwKYo8of1psG3Xgn2sLuL3ddJadgqnajz5b1c-1uxD8hQNb8zDAnQowEjIId3C7I545ZnA9Ot8EO1z-02zehQi56D5Q8PWyOFiQgC85NgeDlxhdY8155DcCrTjVo6rGadBUAzY8PJAI2Z6nDYTJOA2jnKOSCjDKOcQVq1WhnJg4_tMn7Mb691MZb_42q1VdVMxdtu7dsoABZ5oAkYJ7zWa_QGKMxn6tCTPrTghhY5Joaj3y0]--></g></svg>