<svg xmlns="http://www.w3.org/2000/svg" xmlns:xlink="http://www.w3.org/1999/xlink" contentStyleType="text/css" data-diagram-type="DESCRIPTION" height="711px" preserveAspectRatio="none" style="width:959px;height:711px;background:#FFFFFF;" version="1.1" viewBox="0 0 959 711" width="959px" zoomAndPan="magnify"><title>Minishell - Simplified Execution Flow</title><defs/><g><g class="title" data-source-line="22"><text fill="#000000" font-family="Arial" font-size="14" font-weight="bold" lengthAdjust="spacing" textLength="290.0352" x="327.5224" y="22.9951">Minishell - Simplified Execution Flow</text></g><!--cluster Execution Manager--><g class="cluster" data-entity="Execution Manager" data-source-line="24" data-uid="ent0002" id="cluster_Execution Manager"><path d="M13.58,147.0969 L166.0986,147.0969 A3.75,3.75 0 0 1 168.5986,149.5969 L175.5986,169.3937 L441.58,169.3937 A2.5,2.5 0 0 1 444.08,171.8937 L444.08,263.0169 A2.5,2.5 0 0 1 441.58,265.5169 L13.58,265.5169 A2.5,2.5 0 0 1 11.08,263.0169 L11.08,149.5969 A2.5,2.5 0 0 1 13.58,147.0969" fill="#FFFFE0" style="stroke:#FFA500;stroke-width:1.5;"/><line style="stroke:#FFA500;stroke-width:1.5;" x1="11.08" x2="175.5986" y1="169.3937" y2="169.3937"/><text fill="#000000" font-family="Arial" font-size="14" font-weight="bold" lengthAdjust="spacing" textLength="151.5186" x="15.08" y="162.092">Execution Manager</text></g><!--cluster Child Process--><g class="cluster" data-entity="Child Process" data-source-line="33" data-uid="ent0007" id="cluster_Child Process"><path d="M470.58,149.9069 L577.5575,149.9069 A3.75,3.75 0 0 1 580.0575,152.4069 L587.0575,172.2038 L949.58,172.2038 A2.5,2.5 0 0 1 952.08,174.7038 L952.08,613.6269 A2.5,2.5 0 0 1 949.58,616.1269 L470.58,616.1269 A2.5,2.5 0 0 1 468.08,613.6269 L468.08,152.4069 A2.5,2.5 0 0 1 470.58,149.9069" fill="#FFFFE0" style="stroke:#FFA500;stroke-width:1.5;"/><line style="stroke:#FFA500;stroke-width:1.5;" x1="468.08" x2="587.0575" y1="172.2038" y2="172.2038"/><text fill="#000000" font-family="Arial" font-size="14" font-weight="bold" lengthAdjust="spacing" textLength="105.9775" x="472.08" y="164.902">Child Process</text></g><!--cluster Parent Process--><g class="cluster" data-entity="Parent Process" data-source-line="45" data-uid="ent0016" id="cluster_Parent Process"><path d="M106.58,503.3169 L226.4638,503.3169 A3.75,3.75 0 0 1 228.9638,505.8169 L235.9638,525.6138 L441.58,525.6138 A2.5,2.5 0 0 1 444.08,528.1138 L444.08,613.6269 A2.5,2.5 0 0 1 441.58,616.1269 L106.58,616.1269 A2.5,2.5 0 0 1 104.08,613.6269 L104.08,505.8169 A2.5,2.5 0 0 1 106.58,503.3169" fill="#FFFFE0" style="stroke:#FFA500;stroke-width:1.5;"/><line style="stroke:#FFA500;stroke-width:1.5;" x1="104.08" x2="235.9638" y1="525.6138" y2="525.6138"/><text fill="#000000" font-family="Arial" font-size="14" font-weight="bold" lengthAdjust="spacing" textLength="118.8838" x="108.08" y="518.312">Parent Process</text></g><!--entity ExecLoop--><g class="entity" data-entity="ExecLoop" data-source-line="25" data-uid="ent0003" id="entity_ExecLoop"><rect fill="#ADD8E6" height="42.8047" rx="2.5" ry="2.5" style="stroke:#00008B;stroke-width:0.5;" width="124.3853" x="26.89" y="203.9069"/><rect fill="#ADD8E6" height="10" style="stroke:#00008B;stroke-width:0.5;" width="15" x="131.2753" y="208.9069"/><rect fill="#ADD8E6" height="2" style="stroke:#00008B;stroke-width:0.5;" width="4" x="129.2753" y="210.9069"/><rect fill="#ADD8E6" height="2" style="stroke:#00008B;stroke-width:0.5;" width="4" x="129.2753" y="214.9069"/><text fill="#000000" font-family="Arial" font-size="11" lengthAdjust="spacing" textLength="84.3853" x="41.89" y="234.1173">Execution Loop</text></g><g class="entity" data-entity="GMN4" data-source-line="27" data-uid="ent0005" id="entity_GMN4"><path d="M185.78,201.0969 L185.78,221.3069 L151.67,225.3069 L185.78,229.3069 L185.78,249.5109 A0,0 0 0 0 185.78,249.5109 L428.3752,249.5109 A0,0 0 0 0 428.3752,249.5109 L428.3752,211.0969 L418.3752,201.0969 L185.78,201.0969 A0,0 0 0 0 185.78,201.0969" fill="#FFFACD" style="stroke:#808080;stroke-width:0.5;"/><path d="M418.3752,201.0969 L418.3752,211.0969 L428.3752,211.0969 L418.3752,201.0969" fill="#FFFACD" style="stroke:#808080;stroke-width:0.5;"/><text fill="#000000" font-family="Arial" font-size="11" lengthAdjust="spacing" textLength="221.5952" x="191.78" y="216.3073">- Iterates through structured commands</text><text fill="#000000" font-family="Arial" font-size="11" lengthAdjust="spacing" textLength="153.2158" x="191.78" y="229.112">- Sets up pipes for pipelines</text><text fill="#000000" font-family="Arial" font-size="11" lengthAdjust="spacing" textLength="125.2646" x="191.78" y="241.9167">- Forks child processes</text></g><!--entity ChildSignals--><g class="entity" data-entity="ChildSignals" data-source-line="34" data-uid="ent0008" id="entity_ChildSignals"><rect fill="#ADD8E6" height="42.8047" rx="2.5" ry="2.5" style="stroke:#00008B;stroke-width:0.5;" width="115.0342" x="484.56" y="203.9069"/><rect fill="#ADD8E6" height="10" style="stroke:#00008B;stroke-width:0.5;" width="15" x="579.5942" y="208.9069"/><rect fill="#ADD8E6" height="2" style="stroke:#00008B;stroke-width:0.5;" width="4" x="577.5942" y="210.9069"/><rect fill="#ADD8E6" height="2" style="stroke:#00008B;stroke-width:0.5;" width="4" x="577.5942" y="214.9069"/><text fill="#000000" font-family="Arial" font-size="11" lengthAdjust="spacing" textLength="75.0342" x="499.56" y="234.1173">Setup Signals</text></g><!--entity Redirections--><g class="entity" data-entity="Redirections" data-source-line="35" data-uid="ent0009" id="entity_Redirections"><rect fill="#ADD8E6" height="42.8047" rx="2.5" ry="2.5" style="stroke:#00008B;stroke-width:0.5;" width="144.1025" x="635.03" y="203.9069"/><rect fill="#ADD8E6" height="10" style="stroke:#00008B;stroke-width:0.5;" width="15" x="759.1325" y="208.9069"/><rect fill="#ADD8E6" height="2" style="stroke:#00008B;stroke-width:0.5;" width="4" x="757.1325" y="210.9069"/><rect fill="#ADD8E6" height="2" style="stroke:#00008B;stroke-width:0.5;" width="4" x="757.1325" y="214.9069"/><text fill="#000000" font-family="Arial" font-size="11" lengthAdjust="spacing" textLength="104.1025" x="650.03" y="234.1173">Setup Redirections</text></g><!--entity Builtin--><g class="entity" data-entity="Builtin" data-source-line="36" data-uid="ent0010" id="entity_Builtin"><rect fill="#ADD8E6" height="42.8047" rx="2.5" ry="2.5" style="stroke:#00008B;stroke-width:0.5;" width="121.7803" x="814.19" y="203.9069"/><rect fill="#ADD8E6" height="10" style="stroke:#00008B;stroke-width:0.5;" width="15" x="915.9703" y="208.9069"/><rect fill="#ADD8E6" height="2" style="stroke:#00008B;stroke-width:0.5;" width="4" x="913.9703" y="210.9069"/><rect fill="#ADD8E6" height="2" style="stroke:#00008B;stroke-width:0.5;" width="4" x="913.9703" y="214.9069"/><text fill="#000000" font-family="Arial" font-size="11" lengthAdjust="spacing" textLength="81.7803" x="829.19" y="234.1173">Builtin Handler</text></g><!--entity PathResolver--><g class="entity" data-entity="PathResolver" data-source-line="37" data-uid="ent0011" id="entity_PathResolver"><rect fill="#ADD8E6" height="42.8047" rx="2.5" ry="2.5" style="stroke:#00008B;stroke-width:0.5;" width="175.9155" x="622.12" y="325.5169"/><rect fill="#ADD8E6" height="10" style="stroke:#00008B;stroke-width:0.5;" width="15" x="778.0355" y="330.5169"/><rect fill="#ADD8E6" height="2" style="stroke:#00008B;stroke-width:0.5;" width="4" x="776.0355" y="332.5169"/><rect fill="#ADD8E6" height="2" style="stroke:#00008B;stroke-width:0.5;" width="4" x="776.0355" y="336.5169"/><text fill="#000000" font-family="Arial" font-size="11" lengthAdjust="spacing" textLength="135.9155" x="637.12" y="355.7273">Command Path Resolver</text></g><!--entity ExecCmd--><g class="entity" data-entity="ExecCmd" data-source-line="38" data-uid="ent0012" id="entity_ExecCmd"><rect fill="#ADD8E6" height="42.8047" rx="2.5" ry="2.5" style="stroke:#00008B;stroke-width:0.5;" width="144.3604" x="483.9" y="557.3169"/><rect fill="#ADD8E6" height="10" style="stroke:#00008B;stroke-width:0.5;" width="15" x="608.2604" y="562.3169"/><rect fill="#ADD8E6" height="2" style="stroke:#00008B;stroke-width:0.5;" width="4" x="606.2604" y="564.3169"/><rect fill="#ADD8E6" height="2" style="stroke:#00008B;stroke-width:0.5;" width="4" x="606.2604" y="568.3169"/><text fill="#000000" font-family="Arial" font-size="11" lengthAdjust="spacing" textLength="104.3604" x="498.9" y="587.5273">Execute Command</text></g><g class="entity" data-entity="GMN13" data-source-line="40" data-uid="ent0014" id="entity_GMN13"><path d="M662.99,560.9169 L662.99,574.7169 L628.58,578.7169 L662.99,582.7169 L662.99,596.5263 A0,0 0 0 0 662.99,596.5263 L913.1746,596.5263 A0,0 0 0 0 913.1746,596.5263 L913.1746,570.9169 L903.1746,560.9169 L662.99,560.9169 A0,0 0 0 0 662.99,560.9169" fill="#FFFACD" style="stroke:#808080;stroke-width:0.5;"/><path d="M903.1746,560.9169 L903.1746,570.9169 L913.1746,570.9169 L903.1746,560.9169" fill="#FFFACD" style="stroke:#808080;stroke-width:0.5;"/><text fill="#000000" font-family="Arial" font-size="11" lengthAdjust="spacing" textLength="229.1846" x="668.99" y="576.1273">- Executes builtins or external commands</text><text fill="#000000" font-family="Arial" font-size="11" lengthAdjust="spacing" textLength="144.3804" x="668.99" y="588.932">- Uses execve for external</text></g><!--entity PipeMgmt--><g class="entity" data-entity="PipeMgmt" data-source-line="46" data-uid="ent0017" id="entity_PipeMgmt"><rect fill="#ADD8E6" height="42.8047" rx="2.5" ry="2.5" style="stroke:#00008B;stroke-width:0.5;" width="139.3975" x="120.38" y="557.3169"/><rect fill="#ADD8E6" height="10" style="stroke:#00008B;stroke-width:0.5;" width="15" x="239.7775" y="562.3169"/><rect fill="#ADD8E6" height="2" style="stroke:#00008B;stroke-width:0.5;" width="4" x="237.7775" y="564.3169"/><rect fill="#ADD8E6" height="2" style="stroke:#00008B;stroke-width:0.5;" width="4" x="237.7775" y="568.3169"/><text fill="#000000" font-family="Arial" font-size="11" lengthAdjust="spacing" textLength="99.3975" x="135.38" y="587.5273">Pipe Management</text></g><!--entity WaitChildren--><g class="entity" data-entity="WaitChildren" data-source-line="47" data-uid="ent0018" id="entity_WaitChildren"><rect fill="#ADD8E6" height="42.8047" rx="2.5" ry="2.5" style="stroke:#00008B;stroke-width:0.5;" width="133.1133" x="294.52" y="557.3169"/><rect fill="#ADD8E6" height="10" style="stroke:#00008B;stroke-width:0.5;" width="15" x="407.6333" y="562.3169"/><rect fill="#ADD8E6" height="2" style="stroke:#00008B;stroke-width:0.5;" width="4" x="405.6333" y="564.3169"/><rect fill="#ADD8E6" height="2" style="stroke:#00008B;stroke-width:0.5;" width="4" x="405.6333" y="568.3169"/><text fill="#000000" font-family="Arial" font-size="11" lengthAdjust="spacing" textLength="93.1133" x="309.52" y="587.5273">Wait for Children</text></g><!--entity Structured Commands--><g class="entity" data-entity="Structured Commands" data-source-line="50" data-uid="ent0019" id="entity_Structured Commands"><rect fill="#ADD8E6" height="42.8047" rx="2.5" ry="2.5" style="stroke:#00008B;stroke-width:0.5;" width="164.1582" x="7" y="44.2969"/><rect fill="#ADD8E6" height="10" style="stroke:#00008B;stroke-width:0.5;" width="15" x="151.1582" y="49.2969"/><rect fill="#ADD8E6" height="2" style="stroke:#00008B;stroke-width:0.5;" width="4" x="149.1582" y="51.2969"/><rect fill="#ADD8E6" height="2" style="stroke:#00008B;stroke-width:0.5;" width="4" x="149.1582" y="55.2969"/><text fill="#000000" font-family="Arial" font-size="11" lengthAdjust="spacing" textLength="124.1582" x="22" y="74.5073">Structured Commands</text></g><!--entity Output: Exit Status--><g class="entity" data-entity="Output. Exit Status" data-source-line="59" data-uid="ent0029" id="entity_Output. Exit Status"><rect fill="#ADD8E6" height="42.8047" rx="2.5" ry="2.5" style="stroke:#00008B;stroke-width:0.5;" width="144.79" x="288.68" y="663.1269"/><rect fill="#ADD8E6" height="10" style="stroke:#00008B;stroke-width:0.5;" width="15" x="413.47" y="668.1269"/><rect fill="#ADD8E6" height="2" style="stroke:#00008B;stroke-width:0.5;" width="4" x="411.47" y="670.1269"/><rect fill="#ADD8E6" height="2" style="stroke:#00008B;stroke-width:0.5;" width="4" x="411.47" y="674.1269"/><text fill="#000000" font-family="Arial" font-size="11" lengthAdjust="spacing" textLength="104.79" x="303.68" y="693.3373">Output: Exit Status</text></g><!--link Structured Commands to ExecLoop--><g class="link" data-entity-1="Structured Commands" data-entity-2="ExecLoop" data-source-line="50" data-uid="lnk20" id="link_Structured Commands_ExecLoop"><path d="M89.08,87.2969 C89.08,117.5069 89.08,167.4869 89.08,197.6969" fill="none" id="Structured Commands-to-ExecLoop" style="stroke:#181818;stroke-width:1;"/><polygon fill="#181818" points="89.08,203.6969,93.08,194.6969,89.08,198.6969,85.08,194.6969,89.08,203.6969" style="stroke:#181818;stroke-width:1;"/></g><!--link ExecLoop to ChildSignals--><g class="link" data-entity-1="ExecLoop" data-entity-2="ChildSignals" data-source-line="51" data-uid="lnk21" id="link_ExecLoop_ChildSignals"><path d="M101.86,203.4569 C115.35,182.7869 138.71,153.0969 168.08,140.2969 C224.31,115.7969 386.62,118.8469 444.08,140.2969 C477.84,152.8969 503.796,178.3837 521.436,199.1537" fill="none" id="ExecLoop-to-ChildSignals" style="stroke:#181818;stroke-width:1;"/><polygon fill="#181818" points="525.32,203.7269,522.5428,194.2777,522.0833,199.9159,516.4451,199.4564,525.32,203.7269" style="stroke:#181818;stroke-width:1;"/><text fill="#000000" font-family="Arial" font-size="11" lengthAdjust="spacing" textLength="53.5605" x="290.58" y="128.3073">Fork child</text></g><!--link ExecLoop to PipeMgmt--><g class="link" data-entity-1="ExecLoop" data-entity-2="PipeMgmt" data-source-line="52" data-uid="lnk22" id="link_ExecLoop_PipeMgmt"><path d="M95.02,246.9769 C112.91,309.2069 164.4627,488.6003 182.4227,551.0903" fill="none" id="ExecLoop-to-PipeMgmt" style="stroke:#181818;stroke-width:1;"/><polygon fill="#181818" points="184.08,556.8569,185.4384,547.1021,182.6989,552.0514,177.7496,549.3119,184.08,556.8569" style="stroke:#181818;stroke-width:1;"/><text fill="#000000" font-family="Arial" font-size="11" lengthAdjust="spacing" textLength="65.0332" x="144.08" y="409.5273">Setup pipes</text></g><!--link ChildSignals to Redirections--><g class="link" data-entity-1="ChildSignals" data-entity-2="Redirections" data-source-line="53" data-uid="lnk23" id="link_ChildSignals_Redirections"><path d="M600.09,225.3069 C611.65,225.3069 617.21,225.3069 628.78,225.3069" fill="none" id="ChildSignals-to-Redirections" style="stroke:#181818;stroke-width:1;"/><polygon fill="#181818" points="634.78,225.3069,625.78,221.3069,629.78,225.3069,625.78,229.3069,634.78,225.3069" style="stroke:#181818;stroke-width:1;"/></g><!--link Redirections to Builtin--><g class="link" data-entity-1="Redirections" data-entity-2="Builtin" data-source-line="54" data-uid="lnk24" id="link_Redirections_Builtin"><path d="M779.6,225.3069 C791.03,225.3069 796.47,225.3069 807.91,225.3069" fill="none" id="Redirections-to-Builtin" style="stroke:#181818;stroke-width:1;"/><polygon fill="#181818" points="813.91,225.3069,804.91,221.3069,808.91,225.3069,804.91,229.3069,813.91,225.3069" style="stroke:#181818;stroke-width:1;"/></g><!--link Builtin to PathResolver--><g class="link" data-entity-1="Builtin" data-entity-2="PathResolver" data-source-line="55" data-uid="lnk25" id="link_Builtin_PathResolver"><path d="M846.34,247.1369 C816.15,269.0269 773.7979,299.7254 743.6279,321.5954" fill="none" id="Builtin-to-PathResolver" style="stroke:#181818;stroke-width:1;"/><polygon fill="#181818" points="738.77,325.1169,748.4045,323.0733,742.8183,322.1823,743.7092,316.5961,738.77,325.1169" style="stroke:#181818;stroke-width:1;"/><text fill="#000000" font-family="Arial" font-size="11" lengthAdjust="spacing" textLength="66.5317" x="798.08" y="292.7273">If not builtin</text></g><!--link PathResolver to ExecCmd--><g class="link" data-entity-1="PathResolver" data-entity-2="ExecCmd" data-source-line="56" data-uid="lnk26" id="link_PathResolver_ExecCmd"><path d="M696.14,368.7169 C666.82,412.4669 602.4095,508.5822 573.2195,552.1522" fill="none" id="PathResolver-to-ExecCmd" style="stroke:#181818;stroke-width:1;"/><polygon fill="#181818" points="569.88,557.1369,578.2125,551.8862,572.663,552.9829,571.5662,547.4334,569.88,557.1369" style="stroke:#181818;stroke-width:1;"/></g><!--link ExecCmd to PipeMgmt--><g class="link" data-entity-1="ExecCmd" data-entity-2="PipeMgmt" data-source-line="57" data-uid="lnk27" id="link_ExecCmd_PipeMgmt"><path d="M535.35,556.8969 C514.51,536.6769 480.35,507.9869 444.08,496.0469 C373.58,472.8469 346.01,468.5269 277.08,496.0469 C246.51,508.2569 224.1757,532.1215 208.7757,552.2515" fill="none" id="ExecCmd-to-PipeMgmt" style="stroke:#181818;stroke-width:1;"/><polygon fill="#181818" points="205.13,557.0169,213.7754,552.2992,208.1681,553.0457,207.4216,547.4383,205.13,557.0169" style="stroke:#181818;stroke-width:1;"/><text fill="#000000" font-family="Arial" font-size="11" lengthAdjust="spacing" textLength="39.7729" x="409.58" y="484.5273">On exit</text></g><!--link PipeMgmt to WaitChildren--><g class="link" data-entity-1="PipeMgmt" data-entity-2="WaitChildren" data-source-line="58" data-uid="lnk28" id="link_PipeMgmt_WaitChildren"><path d="M260.22,578.7169 C271.51,578.7169 276.81,578.7169 288.1,578.7169" fill="none" id="PipeMgmt-to-WaitChildren" style="stroke:#181818;stroke-width:1;"/><polygon fill="#181818" points="294.1,578.7169,285.1,574.7169,289.1,578.7169,285.1,582.7169,294.1,578.7169" style="stroke:#181818;stroke-width:1;"/></g><!--link WaitChildren to Output: Exit Status--><g class="link" data-entity-1="WaitChildren" data-entity-2="Output. Exit Status" data-source-line="59" data-uid="lnk30" id="link_WaitChildren_Output. Exit Status"><path d="M361.08,600.2269 C361.08,618.3069 361.08,638.5269 361.08,656.7069" fill="none" id="WaitChildren-to-Output: Exit Status" style="stroke:#181818;stroke-width:1;"/><polygon fill="#181818" points="361.08,662.7069,365.08,653.7069,361.08,657.7069,357.08,653.7069,361.08,662.7069" style="stroke:#181818;stroke-width:1;"/></g><!--SRC=[VLDDRzim3BtxLt2zvr1Wfnu6DDco5MYQOCPG344FgatRGcH9aAYktR3_FagsOpjDvalinyV7ZyTyi4xKhG0bDTARHJ2E6fFvWzHMED72ioWEjJD1bokZZ8F7HX9EuYLM8YXQ6qqFeaMuTLAey_5S_aQuliucKSlgeaRuam4_ovDQzx9kw2SgPNvrSUDAT5riwuIkCS6ZziVixrIzCAqr6ZNzJt-f0hvJ_opS8GLcUjhGnLQnDNhLoAeo-ftQLoVUeX99KWWRgQLlU2fOG2vRgsGbiOGlhrW4aaR3EiwR3Qkv6WCReHbnLtqFutZxaNDlZ7q2uPDU_4ZKrBcBuuAfvg7uBE2Eq0b23zJmL7K3dbmeA3ZkZEkqGfT-Gi-HF0GBLbhEgNZ6-1QFQCfQ6tVmK3HIbM2TAT3xFewwJ3t5hHm7NINYhYEU6PABSibSrbeedsPC6JrmdlqTI-cmYAlfKgR0QSeoI4LImpUULg5B_1uxfQwwdS1EKCEQtgYNFY4Y0t3U9eG- - -ZJgYqls3H4keNs-HwUkwuy_rq1Nzaxti0vdtxmmfc0nGicbmRkPHDsmiLMBxkmOwFxIsmPw6PcR5EtTCfz599ItMGK2oTsH0SWrjxduwtrcs6l5ejFuw4EBy3Wr7IuIKVMtTYCDRJ4ZEuIqgbcisIcpSvX-X63W_V3NSIMflQozbqLLpZuaSsYYs64Q6B_UzBQLhCbah8ZnE7PUgOVgVv-6yW6kc5XtcrEWe9_-WS0]--></g></svg>