<svg xmlns="http://www.w3.org/2000/svg" xmlns:xlink="http://www.w3.org/1999/xlink" contentStyleType="text/css" data-diagram-type="SEQUENCE" height="1067px" preserveAspectRatio="none" style="width:1072px;height:1067px;background:#FFFFFF;" version="1.1" viewBox="0 0 1072 1067" width="1072px" zoomAndPan="magnify"><defs/><g><rect fill="none" height="409.0703" style="stroke:#000000;stroke-width:1.5;" width="502.0815" x="267.9858" y="156.5625"/><rect fill="none" height="262.5391" style="stroke:#000000;stroke-width:1.5;" width="482.0815" x="277.9858" y="222.8281"/><rect fill="none" height="75.3984" style="stroke:#000000;stroke-width:1.5;" width="462.0815" x="287.9858" y="402.9688"/><rect fill="none" height="59.2656" style="stroke:#000000;stroke-width:1.5;" width="274.915" x="287.9858" y="499.3672"/><rect fill="none" height="231.4063" style="stroke:#000000;stroke-width:1.5;" width="478.876" x="587.1211" y="667.0313"/><g><title>User</title><rect fill="#000000" fill-opacity="0.00000" height="905.4063" width="8" x="19.9551" y="81.2969"/><line style="stroke:#181818;stroke-width:0.5;stroke-dasharray:5.0,5.0;" x1="23" x2="23" y1="81.2969" y2="986.7031"/></g><g><title>Minishell</title><rect fill="#000000" fill-opacity="0.00000" height="905.4063" width="8" x="175.4595" y="81.2969"/><line style="stroke:#181818;stroke-width:0.5;stroke-dasharray:5.0,5.0;" x1="178.814" x2="178.814" y1="81.2969" y2="986.7031"/></g><g><title>Lexer</title><rect fill="#000000" fill-opacity="0.00000" height="905.4063" width="8" x="320.5195" y="81.2969"/><line style="stroke:#181818;stroke-width:0.5;stroke-dasharray:5.0,5.0;" x1="323.9858" x2="323.9858" y1="81.2969" y2="986.7031"/></g><g><title>Parser</title><rect fill="#000000" fill-opacity="0.00000" height="905.4063" width="8" x="553.9009" y="81.2969"/><line style="stroke:#181818;stroke-width:0.5;stroke-dasharray:5.0,5.0;" x1="557.6807" x2="557.6807" y1="81.2969" y2="986.7031"/></g><g><title>Variable Expander</title><rect fill="#000000" fill-opacity="0.00000" height="905.4063" width="8" x="664.5942" y="81.2969"/><line style="stroke:#181818;stroke-width:0.5;stroke-dasharray:5.0,5.0;" x1="668.1211" x2="668.1211" y1="81.2969" y2="986.7031"/></g><g><title>Command Node Builder</title><rect fill="#000000" fill-opacity="0.00000" height="905.4063" width="8" x="836.5205" y="81.2969"/><line style="stroke:#181818;stroke-width:0.5;stroke-dasharray:5.0,5.0;" x1="840.0674" x2="840.0674" y1="81.2969" y2="986.7031"/></g><g class="participant participant-head" data-participant="User"><text fill="#000000" font-family="sans-serif" font-size="14" lengthAdjust="spacing" textLength="31.9102" x="5" y="77.9951">User</text><ellipse cx="23.9551" cy="13.5" fill="#E2E2F0" rx="8" ry="8" style="stroke:#181818;stroke-width:0.5;"/><path d="M23.9551,21.5 L23.9551,48.5 M10.9551,29.5 L36.9551,29.5 M23.9551,48.5 L10.9551,63.5 M23.9551,48.5 L36.9551,63.5" fill="none" style="stroke:#181818;stroke-width:0.5;"/></g><g class="participant participant-tail" data-participant="User"><text fill="#000000" font-family="sans-serif" font-size="14" lengthAdjust="spacing" textLength="31.9102" x="5" y="998.6982">User</text><ellipse cx="23.9551" cy="1010.5" fill="#E2E2F0" rx="8" ry="8" style="stroke:#181818;stroke-width:0.5;"/><path d="M23.9551,1018.5 L23.9551,1045.5 M10.9551,1026.5 L36.9551,1026.5 M23.9551,1045.5 L10.9551,1060.5 M23.9551,1045.5 L36.9551,1060.5" fill="none" style="stroke:#181818;stroke-width:0.5;"/></g><g class="participant participant-head" data-participant="Shell"><rect fill="#E2E2F0" height="30.2969" rx="2.5" ry="2.5" style="stroke:#181818;stroke-width:0.5;" width="75.291" x="141.814" y="50"/><text fill="#000000" font-family="sans-serif" font-size="14" lengthAdjust="spacing" textLength="61.291" x="148.814" y="69.9951">Minishell</text></g><g class="participant participant-tail" data-participant="Shell"><rect fill="#E2E2F0" height="30.2969" rx="2.5" ry="2.5" style="stroke:#181818;stroke-width:0.5;" width="75.291" x="141.814" y="985.7031"/><text fill="#000000" font-family="sans-serif" font-size="14" lengthAdjust="spacing" textLength="61.291" x="148.814" y="1005.6982">Minishell</text></g><g class="participant participant-head" data-participant="Lexer"><rect fill="#E2E2F0" height="30.2969" rx="2.5" ry="2.5" style="stroke:#181818;stroke-width:0.5;" width="53.0674" x="297.9858" y="50"/><text fill="#000000" font-family="sans-serif" font-size="14" lengthAdjust="spacing" textLength="39.0674" x="304.9858" y="69.9951">Lexer</text></g><g class="participant participant-tail" data-participant="Lexer"><rect fill="#E2E2F0" height="30.2969" rx="2.5" ry="2.5" style="stroke:#181818;stroke-width:0.5;" width="53.0674" x="297.9858" y="985.7031"/><text fill="#000000" font-family="sans-serif" font-size="14" lengthAdjust="spacing" textLength="39.0674" x="304.9858" y="1005.6982">Lexer</text></g><g class="participant participant-head" data-participant="Parser"><rect fill="#E2E2F0" height="30.2969" rx="2.5" ry="2.5" style="stroke:#181818;stroke-width:0.5;" width="58.4404" x="528.6807" y="50"/><text fill="#000000" font-family="sans-serif" font-size="14" lengthAdjust="spacing" textLength="44.4404" x="535.6807" y="69.9951">Parser</text></g><g class="participant participant-tail" data-participant="Parser"><rect fill="#E2E2F0" height="30.2969" rx="2.5" ry="2.5" style="stroke:#181818;stroke-width:0.5;" width="58.4404" x="528.6807" y="985.7031"/><text fill="#000000" font-family="sans-serif" font-size="14" lengthAdjust="spacing" textLength="44.4404" x="535.6807" y="1005.6982">Parser</text></g><g class="participant participant-head" data-participant="Expander"><rect fill="#E2E2F0" height="30.2969" rx="2.5" ry="2.5" style="stroke:#181818;stroke-width:0.5;" width="142.9463" x="597.1211" y="50"/><text fill="#000000" font-family="sans-serif" font-size="14" lengthAdjust="spacing" textLength="128.9463" x="604.1211" y="69.9951">Variable Expander</text></g><g class="participant participant-tail" data-participant="Expander"><rect fill="#E2E2F0" height="30.2969" rx="2.5" ry="2.5" style="stroke:#181818;stroke-width:0.5;" width="142.9463" x="597.1211" y="985.7031"/><text fill="#000000" font-family="sans-serif" font-size="14" lengthAdjust="spacing" textLength="128.9463" x="604.1211" y="1005.6982">Variable Expander</text></g><g class="participant participant-head" data-participant="NodeBuilder"><rect fill="#E2E2F0" height="30.2969" rx="2.5" ry="2.5" style="stroke:#181818;stroke-width:0.5;" width="180.9063" x="750.0674" y="50"/><text fill="#000000" font-family="sans-serif" font-size="14" lengthAdjust="spacing" textLength="166.9063" x="757.0674" y="69.9951">Command Node Builder</text></g><g class="participant participant-tail" data-participant="NodeBuilder"><rect fill="#E2E2F0" height="30.2969" rx="2.5" ry="2.5" style="stroke:#181818;stroke-width:0.5;" width="180.9063" x="750.0674" y="985.7031"/><text fill="#000000" font-family="sans-serif" font-size="14" lengthAdjust="spacing" textLength="166.9063" x="757.0674" y="1005.6982">Command Node Builder</text></g><g class="message" data-participant-1="User" data-participant-2="Shell"><polygon fill="#181818" points="167.4595,108.4297,177.4595,112.4297,167.4595,116.4297,171.4595,112.4297" style="stroke:#181818;stroke-width:1;"/><line style="stroke:#181818;stroke-width:1;" x1="23.9551" x2="173.4595" y1="112.4297" y2="112.4297"/><text fill="#000000" font-family="sans-serif" font-size="13" lengthAdjust="spacing" textLength="131.5044" x="30.9551" y="107.3638">Enter command line</text></g><g class="message" data-participant-1="Shell" data-participant-2="Lexer"><polygon fill="#181818" points="312.5195,137.5625,322.5195,141.5625,312.5195,145.5625,316.5195,141.5625" style="stroke:#181818;stroke-width:1;"/><line style="stroke:#181818;stroke-width:1;" x1="179.4595" x2="318.5195" y1="141.5625" y2="141.5625"/><text fill="#000000" font-family="sans-serif" font-size="13" lengthAdjust="spacing" textLength="95.6655" x="186.4595" y="136.4966">Tokenize input</text></g><path d="M267.9858,156.5625 L344.6099,156.5625 L344.6099,163.6953 L334.6099,173.6953 L267.9858,173.6953 L267.9858,156.5625" fill="#EEEEEE" style="stroke:#000000;stroke-width:1.5;"/><rect fill="none" height="409.0703" style="stroke:#000000;stroke-width:1.5;" width="502.0815" x="267.9858" y="156.5625"/><text fill="#000000" font-family="sans-serif" font-size="13" font-weight="bold" lengthAdjust="spacing" textLength="31.624" x="282.9858" y="169.6294">loop</text><text fill="#000000" font-family="sans-serif" font-size="11" font-weight="bold" lengthAdjust="spacing" textLength="166.1709" x="359.6099" y="168.7729">[For each character/token]</text><g class="message" data-participant-1="Lexer" data-participant-2="Lexer"><line style="stroke:#181818;stroke-width:1;" x1="324.5195" x2="366.5195" y1="194.8281" y2="194.8281"/><line style="stroke:#181818;stroke-width:1;" x1="366.5195" x2="366.5195" y1="194.8281" y2="207.8281"/><line style="stroke:#181818;stroke-width:1;" x1="325.5195" x2="366.5195" y1="207.8281" y2="207.8281"/><polygon fill="#181818" points="335.5195,203.8281,325.5195,207.8281,335.5195,211.8281,331.5195,207.8281" style="stroke:#181818;stroke-width:1;"/><text fill="#000000" font-family="sans-serif" font-size="13" lengthAdjust="spacing" textLength="105.4917" x="331.5195" y="189.7622">Skip whitespace</text></g><path d="M277.9858,222.8281 L342.4287,222.8281 L342.4287,229.9609 L332.4287,239.9609 L277.9858,239.9609 L277.9858,222.8281" fill="#EEEEEE" style="stroke:#000000;stroke-width:1.5;"/><rect fill="none" height="262.5391" style="stroke:#000000;stroke-width:1.5;" width="482.0815" x="277.9858" y="222.8281"/><text fill="#000000" font-family="sans-serif" font-size="13" font-weight="bold" lengthAdjust="spacing" textLength="19.4429" x="292.9858" y="235.895">alt</text><text fill="#000000" font-family="sans-serif" font-size="11" font-weight="bold" lengthAdjust="spacing" textLength="175.9087" x="357.4287" y="235.0386">[Special character/operator]</text><g class="message" data-participant-1="Lexer" data-participant-2="Lexer"><line style="stroke:#181818;stroke-width:1;" x1="324.5195" x2="366.5195" y1="261.0938" y2="261.0938"/><line style="stroke:#181818;stroke-width:1;" x1="366.5195" x2="366.5195" y1="261.0938" y2="274.0938"/><line style="stroke:#181818;stroke-width:1;" x1="325.5195" x2="366.5195" y1="274.0938" y2="274.0938"/><polygon fill="#181818" points="335.5195,270.0938,325.5195,274.0938,335.5195,278.0938,331.5195,274.0938" style="stroke:#181818;stroke-width:1;"/><text fill="#000000" font-family="sans-serif" font-size="13" lengthAdjust="spacing" textLength="144.4727" x="331.5195" y="256.0278">Create operator token</text></g><line style="stroke:#000000;stroke-width:1;stroke-dasharray:2.0,2.0;" x1="277.9858" x2="760.0674" y1="283.0938" y2="283.0938"/><text fill="#000000" font-family="sans-serif" font-size="11" font-weight="bold" lengthAdjust="spacing" textLength="95.9224" x="282.9858" y="293.3042">[Quoted string]</text><g class="message" data-participant-1="Lexer" data-participant-2="Lexer"><line style="stroke:#181818;stroke-width:1;" x1="324.5195" x2="366.5195" y1="318.0313" y2="318.0313"/><line style="stroke:#181818;stroke-width:1;" x1="366.5195" x2="366.5195" y1="318.0313" y2="331.0313"/><line style="stroke:#181818;stroke-width:1;" x1="325.5195" x2="366.5195" y1="331.0313" y2="331.0313"/><polygon fill="#181818" points="335.5195,327.0313,325.5195,331.0313,335.5195,335.0313,331.5195,331.0313" style="stroke:#181818;stroke-width:1;"/><text fill="#000000" font-family="sans-serif" font-size="13" lengthAdjust="spacing" textLength="185.0532" x="331.5195" y="312.9653">Handle quotes, create token</text></g><line style="stroke:#000000;stroke-width:1;stroke-dasharray:2.0,2.0;" x1="277.9858" x2="760.0674" y1="340.0313" y2="340.0313"/><text fill="#000000" font-family="sans-serif" font-size="11" font-weight="bold" lengthAdjust="spacing" textLength="43.0439" x="282.9858" y="350.2417">[Word]</text><g class="message" data-participant-1="Lexer" data-participant-2="Lexer"><line style="stroke:#181818;stroke-width:1;" x1="324.5195" x2="366.5195" y1="374.9688" y2="374.9688"/><line style="stroke:#181818;stroke-width:1;" x1="366.5195" x2="366.5195" y1="374.9688" y2="387.9688"/><line style="stroke:#181818;stroke-width:1;" x1="325.5195" x2="366.5195" y1="387.9688" y2="387.9688"/><polygon fill="#181818" points="335.5195,383.9688,325.5195,387.9688,335.5195,391.9688,331.5195,387.9688" style="stroke:#181818;stroke-width:1;"/><text fill="#000000" font-family="sans-serif" font-size="13" lengthAdjust="spacing" textLength="120.7451" x="331.5195" y="369.9028">Create word token</text></g><path d="M287.9858,402.9688 L364.6099,402.9688 L364.6099,410.1016 L354.6099,420.1016 L287.9858,420.1016 L287.9858,402.9688" fill="#EEEEEE" style="stroke:#000000;stroke-width:1.5;"/><rect fill="none" height="75.3984" style="stroke:#000000;stroke-width:1.5;" width="462.0815" x="287.9858" y="402.9688"/><text fill="#000000" font-family="sans-serif" font-size="13" font-weight="bold" lengthAdjust="spacing" textLength="31.624" x="302.9858" y="416.0356">loop</text><text fill="#000000" font-family="sans-serif" font-size="11" font-weight="bold" lengthAdjust="spacing" textLength="120.71" x="379.6099" y="415.1792">[Variable detected]</text><g class="message" data-participant-1="Lexer" data-participant-2="Expander"><polygon fill="#181818" points="656.5942,437.2344,666.5942,441.2344,656.5942,445.2344,660.5942,441.2344" style="stroke:#181818;stroke-width:1;"/><line style="stroke:#181818;stroke-width:1;" x1="324.5195" x2="662.5942" y1="441.2344" y2="441.2344"/><text fill="#000000" font-family="sans-serif" font-size="13" lengthAdjust="spacing" textLength="105.1934" x="331.5195" y="436.1685">Expand variable</text></g><g class="message" data-participant-1="Expander" data-participant-2="Lexer"><polygon fill="#181818" points="335.5195,466.3672,325.5195,470.3672,335.5195,474.3672,331.5195,470.3672" style="stroke:#181818;stroke-width:1;"/><line style="stroke:#181818;stroke-width:1;" x1="329.5195" x2="667.5942" y1="470.3672" y2="470.3672"/><text fill="#000000" font-family="sans-serif" font-size="13" lengthAdjust="spacing" textLength="104.5078" x="341.5195" y="465.3013">Expanded value</text></g><path d="M287.9858,499.3672 L352.4287,499.3672 L352.4287,506.5 L342.4287,516.5 L287.9858,516.5 L287.9858,499.3672" fill="#EEEEEE" style="stroke:#000000;stroke-width:1.5;"/><rect fill="none" height="59.2656" style="stroke:#000000;stroke-width:1.5;" width="274.915" x="287.9858" y="499.3672"/><text fill="#000000" font-family="sans-serif" font-size="13" font-weight="bold" lengthAdjust="spacing" textLength="19.4429" x="302.9858" y="512.4341">alt</text><text fill="#000000" font-family="sans-serif" font-size="11" font-weight="bold" lengthAdjust="spacing" textLength="143.7466" x="367.4287" y="511.5776">[Token joining needed]</text><g class="message" data-participant-1="Lexer" data-participant-2="Lexer"><line style="stroke:#181818;stroke-width:1;" x1="324.5195" x2="366.5195" y1="537.6328" y2="537.6328"/><line style="stroke:#181818;stroke-width:1;" x1="366.5195" x2="366.5195" y1="537.6328" y2="550.6328"/><line style="stroke:#181818;stroke-width:1;" x1="325.5195" x2="366.5195" y1="550.6328" y2="550.6328"/><polygon fill="#181818" points="335.5195,546.6328,325.5195,550.6328,335.5195,554.6328,331.5195,550.6328" style="stroke:#181818;stroke-width:1;"/><text fill="#000000" font-family="sans-serif" font-size="13" lengthAdjust="spacing" textLength="219.3813" x="331.5195" y="532.5669">Join tokens (handle $ and quotes)</text></g><g class="message" data-participant-1="Lexer" data-participant-2="Shell"><polygon fill="#181818" points="190.4595,589.7656,180.4595,593.7656,190.4595,597.7656,186.4595,593.7656" style="stroke:#181818;stroke-width:1;"/><line style="stroke:#181818;stroke-width:1;" x1="184.4595" x2="323.5195" y1="593.7656" y2="593.7656"/><text fill="#000000" font-family="sans-serif" font-size="13" lengthAdjust="spacing" textLength="62.8862" x="196.4595" y="588.6997">Token list</text></g><g class="message" data-participant-1="Shell" data-participant-2="Parser"><polygon fill="#181818" points="545.9009,618.8984,555.9009,622.8984,545.9009,626.8984,549.9009,622.8984" style="stroke:#181818;stroke-width:1;"/><line style="stroke:#181818;stroke-width:1;" x1="179.4595" x2="551.9009" y1="622.8984" y2="622.8984"/><text fill="#000000" font-family="sans-serif" font-size="13" lengthAdjust="spacing" textLength="83.6431" x="186.4595" y="617.8325">Parse tokens</text></g><g class="message" data-participant-1="Parser" data-participant-2="NodeBuilder"><polygon fill="#181818" points="828.5205,648.0313,838.5205,652.0313,828.5205,656.0313,832.5205,652.0313" style="stroke:#181818;stroke-width:1;"/><line style="stroke:#181818;stroke-width:1;" x1="557.9009" x2="834.5205" y1="652.0313" y2="652.0313"/><text fill="#000000" font-family="sans-serif" font-size="13" lengthAdjust="spacing" textLength="97.208" x="564.9009" y="646.9653">For each token</text></g><path d="M587.1211,667.0313 L651.564,667.0313 L651.564,674.1641 L641.564,684.1641 L587.1211,684.1641 L587.1211,667.0313" fill="#EEEEEE" style="stroke:#000000;stroke-width:1.5;"/><rect fill="none" height="231.4063" style="stroke:#000000;stroke-width:1.5;" width="478.876" x="587.1211" y="667.0313"/><text fill="#000000" font-family="sans-serif" font-size="13" font-weight="bold" lengthAdjust="spacing" textLength="19.4429" x="602.1211" y="680.0981">alt</text><text fill="#000000" font-family="sans-serif" font-size="11" font-weight="bold" lengthAdjust="spacing" textLength="43.0439" x="666.564" y="679.2417">[Word]</text><g class="message" data-participant-1="NodeBuilder" data-participant-2="Expander"><polygon fill="#181818" points="679.5942,701.2969,669.5942,705.2969,679.5942,709.2969,675.5942,705.2969" style="stroke:#181818;stroke-width:1;"/><line style="stroke:#181818;stroke-width:1;" x1="673.5942" x2="839.5205" y1="705.2969" y2="705.2969"/><text fill="#000000" font-family="sans-serif" font-size="13" lengthAdjust="spacing" textLength="145.5327" x="685.5942" y="700.231">Expand/split if needed</text></g><g class="message" data-participant-1="Expander" data-participant-2="NodeBuilder"><polygon fill="#181818" points="828.5205,730.4297,838.5205,734.4297,828.5205,738.4297,832.5205,734.4297" style="stroke:#181818;stroke-width:1;"/><line style="stroke:#181818;stroke-width:1;" x1="668.5942" x2="834.5205" y1="734.4297" y2="734.4297"/><text fill="#000000" font-family="sans-serif" font-size="13" lengthAdjust="spacing" textLength="121.4243" x="675.5942" y="729.3638">Expanded value(s)</text></g><g class="message" data-participant-1="NodeBuilder" data-participant-2="NodeBuilder"><line style="stroke:#181818;stroke-width:1;" x1="840.5205" x2="882.5205" y1="763.5625" y2="763.5625"/><line style="stroke:#181818;stroke-width:1;" x1="882.5205" x2="882.5205" y1="763.5625" y2="776.5625"/><line style="stroke:#181818;stroke-width:1;" x1="841.5205" x2="882.5205" y1="776.5625" y2="776.5625"/><polygon fill="#181818" points="851.5205,772.5625,841.5205,776.5625,851.5205,780.5625,847.5205,776.5625" style="stroke:#181818;stroke-width:1;"/><text fill="#000000" font-family="sans-serif" font-size="13" lengthAdjust="spacing" textLength="144.0664" x="847.5205" y="758.4966">Add to command args</text></g><line style="stroke:#000000;stroke-width:1;stroke-dasharray:2.0,2.0;" x1="587.1211" x2="1065.9971" y1="785.5625" y2="785.5625"/><text fill="#000000" font-family="sans-serif" font-size="11" font-weight="bold" lengthAdjust="spacing" textLength="81.4526" x="592.1211" y="795.7729">[Redirection]</text><g class="message" data-participant-1="NodeBuilder" data-participant-2="NodeBuilder"><line style="stroke:#181818;stroke-width:1;" x1="840.5205" x2="882.5205" y1="820.5" y2="820.5"/><line style="stroke:#181818;stroke-width:1;" x1="882.5205" x2="882.5205" y1="820.5" y2="833.5"/><line style="stroke:#181818;stroke-width:1;" x1="841.5205" x2="882.5205" y1="833.5" y2="833.5"/><polygon fill="#181818" points="851.5205,829.5,841.5205,833.5,851.5205,837.5,847.5205,833.5" style="stroke:#181818;stroke-width:1;"/><text fill="#000000" font-family="sans-serif" font-size="13" lengthAdjust="spacing" textLength="140.5371" x="847.5205" y="815.4341">Add to redirection list</text></g><line style="stroke:#000000;stroke-width:1;stroke-dasharray:2.0,2.0;" x1="587.1211" x2="1065.9971" y1="842.5" y2="842.5"/><text fill="#000000" font-family="sans-serif" font-size="11" font-weight="bold" lengthAdjust="spacing" textLength="103.0068" x="592.1211" y="852.7104">[Pipe/Separator]</text><g class="message" data-participant-1="NodeBuilder" data-participant-2="NodeBuilder"><line style="stroke:#181818;stroke-width:1;" x1="840.5205" x2="882.5205" y1="877.4375" y2="877.4375"/><line style="stroke:#181818;stroke-width:1;" x1="882.5205" x2="882.5205" y1="877.4375" y2="890.4375"/><line style="stroke:#181818;stroke-width:1;" x1="841.5205" x2="882.5205" y1="890.4375" y2="890.4375"/><polygon fill="#181818" points="851.5205,886.4375,841.5205,890.4375,851.5205,894.4375,847.5205,890.4375" style="stroke:#181818;stroke-width:1;"/><text fill="#000000" font-family="sans-serif" font-size="13" lengthAdjust="spacing" textLength="206.4766" x="847.5205" y="872.3716">Finalize current command node</text></g><g class="message" data-participant-1="Parser" data-participant-2="Shell"><polygon fill="#181818" points="190.4595,922.5703,180.4595,926.5703,190.4595,930.5703,186.4595,926.5703" style="stroke:#181818;stroke-width:1;"/><line style="stroke:#181818;stroke-width:1;" x1="184.4595" x2="556.9009" y1="926.5703" y2="926.5703"/><text fill="#000000" font-family="sans-serif" font-size="13" lengthAdjust="spacing" textLength="287.5869" x="196.4595" y="921.5044">Structured command nodes (AST/linked list)</text></g><g class="message" data-participant-1="Shell" data-participant-2="Shell"><line style="stroke:#181818;stroke-width:1;" x1="179.4595" x2="221.4595" y1="955.7031" y2="955.7031"/><line style="stroke:#181818;stroke-width:1;" x1="221.4595" x2="221.4595" y1="955.7031" y2="968.7031"/><line style="stroke:#181818;stroke-width:1;" x1="180.4595" x2="221.4595" y1="968.7031" y2="968.7031"/><polygon fill="#181818" points="190.4595,964.7031,180.4595,968.7031,190.4595,972.7031,186.4595,968.7031" style="stroke:#181818;stroke-width:1;"/><text fill="#000000" font-family="sans-serif" font-size="13" lengthAdjust="spacing" textLength="131.0601" x="186.4595" y="950.6372">Ready for execution</text></g><!--SRC=[ZLHDJnmn3BtFhx0G1v2Azju34aMWgg8LCBGzfudPSJSaQP8fs_xwEX_p4GIKaLQRYPzVxFUS4J9Q3ry3-iu97qcI4oR2mMSo50RK-W14W3wjMi0Lxj7dO5wrmMlXGusMPHl-9Zo97nhXOiyRgYAdbnPxRXyUU1k-M8NmOIGzmTD6VU-wr02Sd9P2uJrScCWRikPgCjYL46DolOovipiqz1U1Z1jZfwrrSCbYe903o45u8Pba4nEi0tvAuegXtv63nu4Y1YSaPf3G4Ng7aeHUaLY7Nh3I6V8irxb74H4c82p7eWu8DwEDg214JsRxCij7RfTr_PNGuHt8Glg4wxlrwh-5F39ebPYUhD3idSA8tDl2rB1DPYOlyX9-ryG6FyDM1TIzbA771Owc73Nz9w6pXV3Jyh2QBHX4XQzqzebnfQK0HqDHwX1IRKMluva__URqQQRAOPf2N6QfJ3S7ywAITtMNuwiXPT0yNKNNrC7inHhvd7wRu3H5eFjrcslvsgDQ4OzgRqyEQLFEL39ylZJ2RqENv-KM5NdscgnvCujVSefacUcQ76vwv0i-NuPNoIx929skg1ozH_uSJCKPXcMN5gadc_heHnb7Bg11i-Ld_Ts6FmKxLBcauyN6AVSMXVe3zyccFSenLVyF]--></g></svg>